<svg width="55" height="56" viewBox="0 0 55 56" fill="none" xmlns="http://www.w3.org/2000/svg">
<path d="M25.2318 21.3027L31.6938 25.0929L37.9026 21.3027L31.6938 17.639L25.2318 21.3027Z" stroke="black" stroke-width="0.844156" stroke-linejoin="round"/>
<path d="M31.6938 25.0929V32.6143" stroke="black" stroke-width="0.844156" stroke-miterlimit="10"/>
<path d="M37.9026 21.3026V28.6341L31.6263 32.5932L25.2318 28.7565V21.3026" stroke="black" stroke-width="0.844156" stroke-linejoin="round"/>
<path d="M15.2539 22.2818C15.2835 21.3617 15.6802 20.9861 16.6003 20.9692C17.2039 20.9607 17.8075 20.9649 18.4111 20.9565C19.1497 20.9438 19.6688 20.5935 19.9559 19.9182C20.2682 19.1838 20.589 18.4536 20.8718 17.7065C21.1292 17.0312 21.0195 16.3981 20.5046 15.8705C20.0825 15.4357 19.6477 15.0179 19.2257 14.5831C18.5799 13.9247 18.5841 13.3211 19.2425 12.6585C19.8039 12.0887 20.3695 11.5273 20.9435 10.9701C21.564 10.3666 22.1718 10.3581 22.7838 10.9533C23.2059 11.3585 23.611 11.7763 24.0247 12.1942C24.6114 12.7893 25.2909 12.9117 26.0549 12.5951C26.7218 12.3208 27.3886 12.0422 28.0513 11.7679C28.8153 11.4513 29.2162 10.8984 29.2078 10.0585C29.1994 9.47599 29.1994 8.8893 29.2289 8.30683C29.2711 7.45846 29.6721 7.07858 30.5205 7.0617C31.3562 7.04482 32.1961 7.0406 33.0318 7.05326C33.8591 7.06592 34.3107 7.55131 34.3107 8.39547C34.3107 8.92307 34.3065 9.44644 34.2981 9.97404C34.2854 10.8857 34.6399 11.4471 35.4714 11.7974C36.1341 12.0802 36.7968 12.3588 37.4679 12.6247C38.2318 12.9286 38.9156 12.8231 39.4981 12.2153C39.8906 11.8101 40.2916 11.4133 40.701 11.0208C41.2919 10.451 41.9208 10.4425 42.5033 11.0081C43.1195 11.6033 43.7231 12.2111 44.3182 12.8315C44.8627 13.4013 44.8627 14.0175 44.3182 14.5916C43.9003 15.0305 43.4698 15.4484 43.0393 15.8747C42.4611 16.4487 42.3387 17.1029 42.651 17.8542C42.9253 18.5211 43.187 19.1922 43.4614 19.8591C43.7948 20.6737 44.3477 21.0409 45.2257 21.0367C45.7912 21.0367 46.3568 21.024 46.9182 21.0283C47.7497 21.0367 48.2224 21.5137 48.2224 22.3409" stroke="black" stroke-width="0.844156" stroke-miterlimit="10"/>
<path d="M21.6104 23.5397C21.6104 17.9429 26.1477 13.4098 31.7402 13.4098C37.3328 13.4098 41.8701 17.9471 41.8701 23.5397" stroke="black" stroke-width="0.844156" stroke-miterlimit="10"/>
<path d="M21.6104 24.5653V26.338" stroke="black" stroke-width="0.844156" stroke-miterlimit="10"/>
<path d="M21.6104 28.0896V29.7441" stroke="black" stroke-width="0.844156" stroke-miterlimit="10"/>
<path d="M41.8744 24.5653V26.338" stroke="black" stroke-width="0.844156" stroke-miterlimit="10"/>
<path d="M41.8744 28.0896V29.7441" stroke="black" stroke-width="0.844156" stroke-miterlimit="10"/>
<path d="M9.72058 47.8978V7.95654" stroke="black" stroke-width="0.844156" stroke-miterlimit="10"/>
<path d="M13.173 10.7548L12.5526 11.3288L9.72042 8.28144L6.88406 11.3288L6.26782 10.7548L9.72042 7.04053L13.173 10.7548Z" fill="black"/>
<path d="M4.6134 41.8324H37.8098" stroke="black" stroke-width="0.844156" stroke-miterlimit="10"/>
<path d="M4.6134 45.0276L19.4705 35.9276" stroke="black" stroke-width="0.844156" stroke-miterlimit="10"/>
<path d="M18.888 40.334L18.0734 40.1061L19.1961 36.0964L15.1146 35.2733L15.2835 34.446L20.2513 35.4506L18.888 40.334Z" fill="black"/>
<path d="M34.7286 33.3867L40.1608 48.0075L43.2166 44.9517L47.4712 49.2062L50.2569 46.4205L46.0023 42.1617L49.0582 39.1059L34.7286 33.3867Z" stroke="black" stroke-width="0.844156" stroke-linecap="round" stroke-linejoin="round"/>
</svg>
