<svg width="56" height="55" viewBox="0 0 56 55" fill="none" xmlns="http://www.w3.org/2000/svg">
<path d="M33.7452 41.8557C33.7452 41.8557 34.6297 43.3799 32.9917 44.0302C31.8861 44.4692 25.4614 42.2418 25.4614 42.2418" stroke="black" stroke-width="0.844156" stroke-miterlimit="10"/>
<path d="M17.8451 48.3507C17.9024 48.3141 21.3134 47.4728 21.383 47.4728C21.6778 47.4728 22.8571 47.3427 22.939 47.359C23.0004 47.3712 23.0578 47.3834 23.1192 47.3956C23.3771 47.4321 23.6392 47.4728 23.8972 47.5094C24.0446 47.5297 24.1879 47.55 24.3353 47.5703C24.536 47.5988 24.7366 47.6272 24.9414 47.6598C25.1133 47.6841 25.2894 47.7126 25.4614 47.737C25.6047 47.7573 25.7439 47.7817 25.8873 47.7979C26.0797 47.8223 26.2763 47.8427 26.4728 47.863C26.4728 47.863 26.481 47.863 26.4851 47.863C26.6448 47.8914 26.8086 47.9199 26.9683 47.9443C27.2549 47.9849 27.5415 48.0256 27.8323 48.0662C27.9797 48.0865 28.123 48.1028 28.2704 48.1231C28.4465 48.1516 28.6226 48.1881 28.8027 48.2085C29.0935 48.241 29.376 48.3019 29.6667 48.3223C29.7855 48.3304 29.9001 48.3507 30.0189 48.3548C30.1663 48.3588 30.3137 48.3304 30.457 48.3182C30.801 48.2897 31.1204 48.1922 31.4357 48.0621C31.7551 47.9361 32.0376 47.741 32.3365 47.5744C32.6682 47.3915 32.9917 47.2005 33.3193 47.0135C33.7206 46.7818 34.1219 46.5542 34.5273 46.3225C35.0227 46.038 35.5223 45.7535 36.0178 45.4649C36.2512 45.3308 36.4805 45.1967 36.7139 45.0626C37.2994 44.7293 37.885 44.3919 38.4705 44.0586C38.8636 43.831 39.2608 43.6034 39.6539 43.3799C40.1576 43.0913 40.6653 42.8027 41.1649 42.5101C41.689 42.2053 41.992 41.7378 42.0985 41.1526C42.164 40.7705 42.0985 40.4006 41.9388 40.047C41.8119 39.7706 41.6194 39.539 41.3778 39.352C41.1321 39.165 40.8537 39.0512 40.5466 38.9903C40.1576 38.913 39.785 38.9618 39.4287 39.1122C39.1707 39.2179 38.925 39.3561 38.6753 39.4861C38.3723 39.6406 38.0692 39.8032 37.7662 39.9576C37.41 40.1405 37.0496 40.3234 36.6893 40.5063C36.2061 40.7502 35.727 40.9981 35.2438 41.246C34.818 41.4655 34.3921 41.6891 33.9663 41.9086C33.8475 41.9695 33.827 41.9614 33.7492 41.8516C33.5404 41.559 33.2742 41.3273 32.9426 41.1891C32.6969 41.0916 32.443 41.0144 32.1932 40.929C31.9148 40.8355 31.6363 40.7461 31.3579 40.6526C31.1327 40.5795 30.9116 40.4982 30.6904 40.425C30.3874 40.3234 30.0885 40.2259 29.7855 40.1283C29.5767 40.0592 29.3719 39.9861 29.1631 39.917C28.9379 39.8438 28.7127 39.7747 28.4915 39.7015C28.2049 39.604 27.9224 39.5065 27.6357 39.4089C27.3859 39.3236 27.1321 39.2423 26.8823 39.161C26.5588 39.0553 26.2312 38.9456 25.9077 38.8399C25.6702 38.7627 25.4368 38.6814 25.1993 38.6082C24.9536 38.531 24.708 38.4578 24.4459 38.4497C24.1961 38.4416 23.9463 38.4416 23.6965 38.4497C23.545 38.4578 23.3935 38.4782 23.2502 38.5147C22.984 38.5879 22.722 38.6814 22.4599 38.7667C22.0259 38.9131 21.5877 39.0634 21.1537 39.2138C20.908 39.2992 20.6623 39.3805 20.4166 39.4658C20.0808 39.5837 19.7492 39.7016 19.4134 39.8154C19.2005 39.8885 18.9875 39.9535 18.7787 40.0267C18.5044 40.1202 18.2341 40.2177 17.9597 40.3153C17.9516 40.3153 17.9434 40.3194 17.9352 40.3234" stroke="black" stroke-width="0.844156" stroke-miterlimit="10"/>
<path d="M17.8549 38.2686L13.7643 38.2954L13.847 49.9926L17.9376 49.9658L17.8549 38.2686Z" stroke="black" stroke-width="0.844156" stroke-miterlimit="10"/>
<path d="M27.8897 4.8855C27.8897 4.8855 30.9567 7.04372 33.131 7.04372H38.9456V17.2658C38.9456 21.3343 37.107 25.1915 33.9336 27.7684L27.8897 32.6823L21.8458 27.7684C18.6764 25.1915 16.8337 21.3343 16.8337 17.2658V7.04372H22.6483C25.6539 7.04372 27.8897 4.8855 27.8897 4.8855Z" stroke="#1D1D1B" stroke-width="0.844156" stroke-miterlimit="10"/>
<path d="M27.8896 7.99072C27.8896 7.99072 30.2728 9.66528 31.9598 9.66528H36.4764V17.6032C36.4764 20.7612 35.0473 23.7567 32.5863 25.7565L27.8937 29.573L23.2011 25.7565C20.7401 23.7527 19.311 20.7612 19.311 17.6032V9.66528H23.8276C26.1616 9.66528 27.8978 7.99072 27.8978 7.99072H27.8896Z" stroke="#1D1D1B" stroke-width="0.844156" stroke-miterlimit="10"/>
<path d="M26.7595 22.8341L22.894 18.9972C22.5132 18.6193 22.5132 18.0055 22.894 17.6235C23.2748 17.2455 23.8972 17.2455 24.278 17.6235L26.6735 19.9971L31.8534 14.1727C32.2096 13.7704 32.828 13.7338 33.2333 14.0874C33.6387 14.441 33.6756 15.0547 33.3193 15.4571L26.7636 22.8341H26.7595Z" stroke="#1D1D1B" stroke-width="0.844156" stroke-miterlimit="10"/>
</svg>
