<svg width="56" height="55" viewBox="0 0 56 55" fill="none" xmlns="http://www.w3.org/2000/svg">
<path d="M24.6516 14.7802H31.2867V23.1078V26.7207" stroke="black" stroke-width="0.844156" stroke-miterlimit="10"/>
<path d="M31.2867 40.2272V46.187H5.83118V14.7802H12.652" stroke="black" stroke-width="0.844156" stroke-miterlimit="10"/>
<path d="M10.1913 33.6639H17.0627" stroke="black" stroke-width="0.844156" stroke-miterlimit="10"/>
<path d="M10.1913 38.0663H17.0627" stroke="black" stroke-width="0.844156" stroke-miterlimit="10"/>
<path d="M38.5886 31.3636C38.2341 31.5113 36.4783 32.2078 36.3896 32.9169C36.3348 33.3432 36.3559 33.7779 36.3601 34.2126C36.3601 34.6178 36.55 34.9175 36.9299 35.0821C37.2296 35.213 37.5292 35.3396 37.8289 35.4789C38.2383 35.6646 38.3607 35.9727 38.1877 36.3821C38.0104 36.8084 37.8247 37.2347 37.6305 37.6568C37.4533 38.0409 37.1367 38.1633 36.7442 38.0029C36.4318 37.8763 36.1237 37.737 35.8156 37.6019C35.4273 37.4331 35.077 37.4964 34.7688 37.7876C34.4776 38.062 34.1864 38.3363 33.8994 38.6191C33.5997 38.9146 33.5111 39.2565 33.6672 39.6574C33.7938 39.9824 33.9036 40.3117 34.0429 40.6282C34.1822 40.9406 34.0302 41.3542 33.6799 41.4893C33.2367 41.6581 32.802 41.8438 32.3546 42.0084C31.962 42.1561 31.6455 42.0211 31.4766 41.6328C31.3458 41.3331 31.2361 41.025 31.1221 40.7211C30.9533 40.2737 30.6705 40.0669 30.1893 40.0542C29.7883 40.0415 29.3874 40.0289 28.9906 40.0289C28.5981 40.0289 28.3026 40.2104 28.138 40.5734C27.9945 40.8899 27.8594 41.2107 27.7159 41.5272C27.5344 41.9282 27.2136 42.0591 26.8085 41.8902C26.3906 41.7172 25.977 41.5315 25.5633 41.3458C25.1412 41.1516 25.0188 40.8435 25.1961 40.4172C25.3227 40.1175 25.4578 39.8178 25.5886 39.5182C25.7659 39.1172 25.6899 38.7584 25.3903 38.4419C25.1159 38.1506 24.8374 37.8636 24.5588 37.5766C24.3098 37.3191 24.0101 37.2347 23.6302 37.3149C23.3348 37.4289 23.0098 37.5513 22.689 37.6821C22.1656 37.8932 21.8533 37.7581 21.6507 37.2221C21.5072 36.838 21.3468 36.4581 21.2075 36.0698C21.0386 35.6013 21.1653 35.3311 21.6253 35.1412C21.9292 35.0188 22.2331 34.9006 22.5328 34.774C22.9 34.6221 23.0942 34.3435 23.1068 33.9425C23.1195 33.512 23.1364 33.0772 23.1322 32.6467C23.1279 32.2584 22.9464 31.9587 22.5835 31.7941C22.2838 31.6591 21.9841 31.5324 21.6844 31.3974C21.2286 31.1906 21.1104 30.8867 21.313 30.4266C21.4818 30.0298 21.6591 29.6331 21.8364 29.2406C22.0305 28.8143 22.3344 28.6919 22.7607 28.8649C23.052 28.9873 23.3432 29.1139 23.6302 29.2448C24.0438 29.4263 24.4111 29.3545 24.7318 29.0422C25.0146 28.7721 25.2932 28.5019 25.576 28.2318C25.8968 27.9237 25.9896 27.5649 25.8208 27.1428C25.7026 26.8516 25.5844 26.5561 25.4831 26.2565C25.3354 25.8217 25.462 25.5516 25.8883 25.3743C26.3062 25.2013 26.7283 25.0324 27.1503 24.8721C27.5682 24.7159 27.8932 24.8721 28.0578 25.2941C28.1633 25.56 28.2646 25.8259 28.3659 26.0919C28.539 26.5519 28.8302 26.763 29.3198 26.7798C29.7081 26.7925 30.1007 26.801 30.489 26.801C30.9322 26.801 31.2572 26.6152 31.4302 26.1932C31.5484 25.9104 31.6708 25.6318 31.7974 25.3532C31.9831 24.9522 32.2997 24.8214 32.7049 24.9902C33.1312 25.1675 33.5575 25.3532 33.9796 25.5474C34.3679 25.7247 34.4861 26.037 34.3257 26.4337C34.2033 26.7376 34.0766 27.261 33.9458 27.5607C33.9458 27.5607 33.9458 28.8269 34.7899 28.8269" stroke="black" stroke-width="0.844156" stroke-miterlimit="10"/>
<path d="M33.8783 32.6932C33.9205 32.9337 33.9458 33.1828 33.9458 33.4402C33.9458 35.7532 32.0718 37.623 29.763 37.623C27.4542 37.623 25.5802 35.749 25.5802 33.4402C25.5802 31.1315 27.4542 29.2574 29.763 29.2574C30.6789 29.2574 31.5231 29.5487 32.211 30.0467L32.7302 30.5237" stroke="black" stroke-width="0.844156" stroke-miterlimit="10"/>
<path d="M22.3387 11.9481H14.7792C13.7303 11.9481 12.8799 12.7985 12.8799 13.8475V15.5358C12.8799 16.5848 13.7303 17.4351 14.7792 17.4351H22.3387C23.3876 17.4351 24.238 16.5848 24.238 15.5358V13.8475C24.238 12.7985 23.3876 11.9481 22.3387 11.9481Z" stroke="black" stroke-width="0.844156" stroke-miterlimit="10"/>
<path d="M14.9902 12.1592V10.4709C14.9902 9.42835 15.8428 8.57153 16.8896 8.57153H20.2282C21.2708 8.57153 22.1276 9.42413 22.1276 10.4709V12.1592" stroke="black" stroke-width="0.844156" stroke-miterlimit="10"/>
<path d="M14.201 29.612L10.0815 25.4926C9.67629 25.0874 9.67629 24.4247 10.0815 24.0195C10.4867 23.6143 11.1493 23.6143 11.5545 24.0195L14.1039 26.5689L19.6204 20.3179C20.0003 19.8874 20.6588 19.8452 21.0893 20.225C21.5198 20.6049 21.562 21.2633 21.1821 21.6939L14.1967 29.6078L14.201 29.612Z" stroke="#1D1D1B" stroke-width="0.844156" stroke-miterlimit="10"/>
<path d="M49.7527 24.602L38.614 31.4692L30.8394 33.3432L35.9465 27.164L47.0851 20.2968C47.8744 19.8072 48.9212 20.052 49.4108 20.8413L50.3014 22.2763C50.791 23.0656 50.5462 24.1124 49.7569 24.602H49.7527Z" stroke="#1D1D1B" stroke-width="0.844156" stroke-linejoin="round"/>
<path d="M35.9507 27.1639L38.6182 31.4691" stroke="#1D1D1B" stroke-width="0.844156" stroke-linejoin="round"/>
<path d="M45.5319 21.2592L48.1994 25.5644" stroke="#1D1D1B" stroke-width="0.844156" stroke-linejoin="round"/>
</svg>
