<svg width="41" height="40" viewBox="0 0 41 40" fill="none" xmlns="http://www.w3.org/2000/svg">
<path d="M37.7406 35.028C38.4361 35.7235 38.4361 36.8513 37.7406 37.5468C37.045 38.2424 35.9172 38.2424 35.2217 37.5468L2.86379 5.18896C2.16822 4.49339 2.16822 3.36565 2.86379 2.67008C3.55936 1.97451 4.6871 1.97451 5.38267 2.67008L37.7406 35.028Z" fill="black" stroke="black" stroke-width="3.83625" stroke-linecap="round"/>
<path d="M5.18891 37.5468C4.49335 38.2423 3.36561 38.2423 2.67004 37.5468C1.97447 36.8512 1.97447 35.7235 2.67004 35.0279L35.0279 2.67C35.7235 1.97444 36.8512 1.97444 37.5468 2.67C38.2424 3.36557 38.2424 4.49331 37.5468 5.18888L5.18891 37.5468Z" fill="black" stroke="black" stroke-width="3.83625" stroke-linecap="round"/>
</svg>
