<svg width="19" height="18" viewBox="0 0 19 18" fill="none" xmlns="http://www.w3.org/2000/svg">
<path d="M18.4688 0V17.9688H0.5V0H18.4688ZM10.6094 11.2344C10.7656 11.2344 10.9115 11.263 11.0469 11.3203C11.1823 11.3776 11.2995 11.4583 11.3984 11.5625C11.5026 11.6615 11.5833 11.7786 11.6406 11.9141C11.6979 12.0495 11.7266 12.1953 11.7266 12.3516V16.8438H17.3438V7.29688H1.625V16.8438H7.23438V12.3516C7.23438 12.1953 7.26302 12.0495 7.32031 11.9141C7.38281 11.7786 7.46354 11.6615 7.5625 11.5625C7.66667 11.4583 7.78646 11.3776 7.92188 11.3203C8.05729 11.263 8.20312 11.2344 8.35938 11.2344H10.6094ZM1.625 6.17969H17.3438V2.25H1.625V6.17969ZM1.625 1.6875H17.3438V1.125H1.625V1.6875ZM12.8516 14.6016V12.3516H15.1016V14.6016H12.8516ZM3.86719 14.6016V12.3516H6.11719V14.6016H3.86719ZM12.8516 10.1094V7.85938H15.1016V10.1094H12.8516ZM3.86719 10.1094V7.85938H6.11719V10.1094H3.86719ZM8.35938 10.1094V7.85938H10.6094V10.1094H8.35938ZM12.8516 5.61719V3.36719H15.1016V5.61719H12.8516ZM3.86719 5.61719V3.36719H6.11719V5.61719H3.86719ZM8.35938 5.61719V3.36719H10.6094V5.61719H8.35938Z" fill="#9CA3AF"/>
</svg>
