<svg width="62" height="41" viewBox="0 0 62 41" fill="none" xmlns="http://www.w3.org/2000/svg">
<path d="M58.1914 28.0898C59.1406 28.8047 59.8789 29.6895 60.4062 30.7441C60.9336 31.7988 61.1973 32.9238 61.1973 34.1191V40.4297H38.4512V34.1191C38.4512 32.9121 38.7148 31.793 39.2422 30.7617C39.7578 29.7188 40.4902 28.8281 41.4395 28.0898C41.2051 27.3516 41.0703 26.6074 41.0352 25.8574C40.9883 25.0957 40.9648 24.334 40.9648 23.5723C40.9648 22.7988 41.0059 22.0723 41.0879 21.3926C41.1699 20.7129 41.3633 20.0156 41.668 19.3008C42.0195 18.4805 42.4766 17.7363 43.0391 17.0684C43.5898 16.4004 44.2227 15.832 44.9375 15.3633C45.6406 14.8945 46.4082 14.5371 47.2402 14.291C48.0605 14.0332 48.9219 13.9043 49.8242 13.9043H59.8613V18.791L58.3145 20.3379C58.4785 20.9121 58.5781 21.4922 58.6133 22.0781C58.6602 22.6523 58.6836 23.2383 58.6836 23.8359C58.6836 24.5625 58.6602 25.2773 58.6133 25.9805C58.5664 26.6836 58.4258 27.3867 58.1914 28.0898ZM43.4961 25.2773C43.4961 26.1445 43.666 26.9648 44.0059 27.7383C44.334 28.5 44.7852 29.168 45.3594 29.7422C45.9336 30.3164 46.6074 30.7676 47.3809 31.0957C48.1426 31.4238 48.957 31.5879 49.8242 31.5879C50.6914 31.5879 51.5059 31.4238 52.2676 31.0957C53.041 30.7676 53.709 30.3164 54.2715 29.7422C54.8457 29.168 55.2969 28.5 55.625 27.7383C55.9648 26.9648 56.1348 26.1445 56.1348 25.2773V22.7461L53.6035 20.2148H46.0273L43.5137 22.7461L43.4961 25.2773ZM58.666 37.8984V34.1191C58.666 33.5918 58.5898 33.0879 58.4375 32.6074C58.2852 32.1152 58.0625 31.6641 57.7695 31.2539C57.4883 30.832 57.1484 30.4629 56.75 30.1465C56.3516 29.8301 55.9062 29.5781 55.4141 29.3906C54.7461 30.3047 53.9316 31.0078 52.9707 31.5C52.0098 31.9805 50.9609 32.2207 49.8242 32.2207C49.2852 32.2207 48.752 32.1562 48.2246 32.0273C47.6855 31.8984 47.1758 31.7168 46.6953 31.4824C46.2031 31.2363 45.7461 30.9375 45.3242 30.5859C44.9023 30.2344 44.5391 29.8359 44.2344 29.3906C43.7422 29.5781 43.2969 29.8301 42.8984 30.1465C42.5 30.4629 42.1602 30.832 41.8789 31.2539C41.5859 31.6641 41.3633 32.1152 41.2109 32.6074C41.0586 33.0879 40.9824 33.5918 40.9824 34.1191V37.8984H58.666ZM47.293 24.0117C47.293 24.3516 47.1699 24.6504 46.9238 24.9082C46.666 25.1543 46.3672 25.2773 46.0273 25.2773C45.6875 25.2773 45.3945 25.1543 45.1484 24.9082C44.8906 24.6504 44.7617 24.3516 44.7617 24.0117V22.7461C44.7617 22.3945 44.8848 22.0957 45.1309 21.8496C45.377 21.6035 45.6758 21.4805 46.0273 21.4805C46.3789 21.4805 46.6777 21.6035 46.9238 21.8496C47.1699 22.0957 47.293 22.3945 47.293 22.7461V24.0117ZM53.6035 25.2773C53.2637 25.2773 52.9707 25.1543 52.7246 24.9082C52.4785 24.6504 52.3555 24.3516 52.3555 24.0117V22.7461C52.3555 22.4062 52.4785 22.1133 52.7246 21.8672C52.9707 21.6094 53.2637 21.4805 53.6035 21.4805C53.9551 21.4805 54.2539 21.6035 54.5 21.8496C54.7461 22.0957 54.8691 22.3945 54.8691 22.7461V24.0117C54.8691 24.3516 54.7402 24.6504 54.4824 24.9082C54.2363 25.1543 53.9434 25.2773 53.6035 25.2773ZM46.0273 27.791C46.0273 27.627 46.0918 27.4805 46.2207 27.3516C46.3496 27.2227 46.4961 27.1582 46.6602 27.1582C46.7656 27.1582 46.9004 27.2285 47.0645 27.3691C47.2168 27.5098 47.3809 27.6738 47.5566 27.8613C47.7324 28.0371 47.9082 28.2129 48.084 28.3887C48.248 28.5527 48.3945 28.6641 48.5234 28.7227C48.6523 28.7812 48.8223 28.8281 49.0332 28.8633C49.2559 28.8984 49.4727 28.9453 49.6836 29.0039C49.8945 29.0625 50.0762 29.1445 50.2285 29.25C50.3809 29.3555 50.457 29.502 50.457 29.6895C50.457 29.8652 50.3926 30.0176 50.2637 30.1465C50.1465 30.2637 50 30.3223 49.8242 30.3223C49.4492 30.3223 49.0742 30.2754 48.6992 30.1816C48.3359 30.0762 47.9902 29.9297 47.6621 29.7422C47.334 29.543 47.0352 29.3086 46.7656 29.0391C46.4961 28.7578 46.2793 28.4473 46.1152 28.1074C46.0566 27.9902 46.0273 27.8848 46.0273 27.791ZM49.8242 26.5254C49.4844 26.5254 49.1855 26.4023 48.9277 26.1562C48.6816 25.9102 48.5586 25.6172 48.5586 25.2773H51.0898C51.0898 25.6172 50.9609 25.9102 50.7031 26.1562C50.457 26.4023 50.1641 26.5254 49.8242 26.5254Z" fill="#2563EB"/>
<path d="M34.6367 29.918C35.0469 30.5508 35.3633 31.2246 35.5859 31.9395C35.8086 32.6426 35.9199 33.3691 35.9199 34.1191V40.4297H13.1738V34.1191C13.1738 33.3691 13.2852 32.6426 13.5078 31.9395C13.7305 31.2246 14.0469 30.5508 14.457 29.918C14.5156 29.4023 14.6797 28.916 14.9492 28.459C15.207 27.9902 15.541 27.6035 15.9512 27.2988C15.8223 26.8066 15.7461 26.3145 15.7227 25.8223C15.6992 25.3301 15.6875 24.832 15.6875 24.3281V23.3262C15.6875 23.0098 15.6934 22.6934 15.7051 22.377C15.7168 22.0488 15.752 21.7266 15.8105 21.4102C15.752 21.1875 15.7168 20.9648 15.7051 20.7422C15.6816 20.5195 15.6699 20.291 15.6699 20.0566C15.6699 19.8105 15.6758 19.5645 15.6875 19.3184C15.6992 19.0723 15.7051 18.8262 15.7051 18.5801C15.7051 18.1582 15.7871 17.7656 15.9512 17.4023C16.1035 17.0391 16.3203 16.7227 16.6016 16.4531C16.8711 16.1719 17.1934 15.9551 17.5684 15.8027C17.9316 15.6387 18.3242 15.5566 18.7461 15.5566C18.9453 15.5566 19.1445 15.5742 19.3438 15.6094C20.1289 15.0586 20.9551 14.6367 21.8223 14.3438C22.6777 14.0508 23.5859 13.9043 24.5469 13.9043C25.7656 13.9043 26.9082 14.1387 27.9746 14.6074C29.0527 15.0645 29.9902 15.6973 30.7871 16.5059C31.5957 17.3027 32.2285 18.2402 32.6855 19.3184C33.1543 20.3848 33.3887 21.5273 33.3887 22.7461C33.3887 23.0508 33.3887 23.3555 33.3887 23.6602C33.4004 23.9648 33.4062 24.2695 33.4062 24.5742C33.4062 25.0312 33.3887 25.4883 33.3535 25.9453C33.3301 26.4023 33.2598 26.8535 33.1426 27.2988C33.5527 27.6035 33.8867 27.9902 34.1445 28.459C34.4141 28.916 34.5781 29.4023 34.6367 29.918ZM33.3887 37.8984V33.873C33.3887 33.4863 33.3301 33.1055 33.2129 32.7305C33.1074 32.3555 32.9551 32.0039 32.7559 31.6758V32.2207H30.8574C30.4355 32.2207 30.0605 32.0977 29.7324 31.8516C29.4043 31.5938 29.1758 31.2656 29.0469 30.8672L28.7832 30.7793C28.1738 31.248 27.5059 31.6055 26.7793 31.8516C26.0645 32.0977 25.3203 32.2207 24.5469 32.2207C23.7734 32.2207 23.0293 32.0977 22.3145 31.8516C21.5879 31.6055 20.9199 31.248 20.3105 30.7793L20.0469 30.8672C19.918 31.2656 19.6895 31.5938 19.3613 31.8516C19.0332 32.0977 18.6582 32.2207 18.2363 32.2207H16.3379V31.6758C16.1387 32.0039 15.9863 32.3555 15.8809 32.7305C15.7637 33.1055 15.7051 33.4863 15.7051 33.873V37.8984H33.3887ZM24.5469 31.5879C25.1445 31.5879 25.7305 31.5059 26.3047 31.3418C26.8789 31.166 27.4121 30.9258 27.9043 30.6211C28.4082 30.3047 28.8594 29.9297 29.2578 29.4961C29.668 29.0508 29.9961 28.5527 30.2422 28.002C30.3125 27.9551 30.3828 27.8262 30.4531 27.6152C30.5234 27.4043 30.5879 27.1758 30.6465 26.9297C30.7051 26.6719 30.752 26.4316 30.7871 26.209C30.834 25.9746 30.8574 25.8105 30.8574 25.7168V22.7461H29.6094V23.3789C29.6094 23.6133 29.5977 23.8418 29.5742 24.0645C29.5508 24.2871 29.4922 24.4922 29.3984 24.6797C29.3164 24.8555 29.1934 25.002 29.0293 25.1191C28.8652 25.2246 28.6367 25.2773 28.3438 25.2773C28.0625 25.2773 27.834 25.2246 27.6582 25.1191C27.4941 25.002 27.3652 24.8555 27.2715 24.6797C27.1895 24.5039 27.1367 24.3047 27.1133 24.082C27.0898 23.8594 27.0781 23.6309 27.0781 23.3965V22.7461H26.5508L25.9531 22.6758C25.8125 22.6758 25.6426 22.6406 25.4434 22.5703C25.2324 22.5 25.0215 22.4121 24.8105 22.3066C24.5879 22.2012 24.3828 22.0957 24.1953 21.9902C24.0078 21.873 23.8613 21.7734 23.7559 21.6914C23.627 21.668 23.4863 21.6211 23.334 21.5508C23.1699 21.4688 23.0117 21.375 22.8594 21.2695C22.6953 21.1641 22.5371 21.0586 22.3848 20.9531C22.2324 20.8477 22.1035 20.7598 21.998 20.6895C21.7988 20.7949 21.5938 20.8477 21.3828 20.8477C21.1602 20.8477 20.9609 20.7949 20.7852 20.6895C20.5508 20.7949 20.3164 20.9238 20.082 21.0762C19.8477 21.2285 19.625 21.3984 19.4141 21.5859C19.1914 21.7617 18.9805 21.9551 18.7812 22.166C18.5703 22.3652 18.3887 22.5586 18.2363 22.7461V25.6289C18.2363 26.0977 18.3184 26.5781 18.4824 27.0703C18.6348 27.5508 18.8281 27.9902 19.0625 28.3887C19.6836 29.4082 20.457 30.1992 21.3828 30.7617C22.2969 31.3125 23.3516 31.5879 24.5469 31.5879ZM21.9277 19.916C22.0566 19.998 22.2207 20.1094 22.4199 20.25C22.6074 20.3789 22.8066 20.5078 23.0176 20.6367C23.2168 20.7539 23.4219 20.8594 23.6328 20.9531C23.832 21.0469 24.002 21.0938 24.1426 21.0938L24.2656 21.041C24.3594 21.041 24.4238 20.9941 24.459 20.9004C24.4824 20.8066 24.5117 20.7305 24.5469 20.6719V18.5098C24.4883 18.4277 24.4473 18.3398 24.4238 18.2461C24.4004 18.1523 24.3184 18.1055 24.1777 18.1055L24.0371 18.0879C23.9199 18.0879 23.7676 18.1406 23.5801 18.2461C23.3926 18.3398 23.1992 18.457 23 18.5977C22.7891 18.7266 22.5898 18.8555 22.4023 18.9844C22.2031 19.1133 22.0449 19.207 21.9277 19.2656C21.8926 19.1719 21.8164 19.0957 21.6992 19.0371C21.582 18.9785 21.4766 18.9492 21.3828 18.9492C21.2305 18.9492 21.125 18.9785 21.0664 19.0371C21.0078 19.0957 20.9316 19.1719 20.8379 19.2656C20.7793 19.2305 20.6445 19.1484 20.4336 19.0195C20.2227 18.8906 20 18.7617 19.7656 18.6328C19.5195 18.4922 19.3027 18.3691 19.1152 18.2637C18.916 18.1465 18.8047 18.0879 18.7812 18.0879H18.6406L18.4297 18.1758C18.3828 18.2227 18.3418 18.2754 18.3066 18.334C18.2598 18.3809 18.2363 18.4277 18.2363 18.4746V20.707C18.2363 20.7539 18.2598 20.8066 18.3066 20.8652C18.3418 20.9121 18.377 20.9473 18.4121 20.9707L18.6406 21.0938H18.7461C18.8281 21.0938 18.9688 21.041 19.168 20.9355C19.3555 20.8301 19.5547 20.7129 19.7656 20.584C19.9766 20.4551 20.1875 20.3262 20.3984 20.1973C20.5977 20.0684 20.75 19.9746 20.8555 19.916C20.9375 20.0449 21.0254 20.127 21.1191 20.1621C21.2129 20.1973 21.3301 20.2148 21.4707 20.2148C21.5645 20.2148 21.6582 20.1855 21.752 20.127C21.834 20.0684 21.8926 19.998 21.9277 19.916ZM22.0156 24.0117C22.0156 24.3516 21.8926 24.6504 21.6465 24.9082C21.3887 25.1543 21.0898 25.2773 20.75 25.2773C20.4102 25.2773 20.1172 25.1543 19.8711 24.9082C19.625 24.6504 19.502 24.3516 19.502 24.0117V22.7461C19.502 22.4062 19.625 22.1133 19.8711 21.8672C20.1172 21.6094 20.4102 21.4805 20.75 21.4805C21.1016 21.4805 21.4004 21.6035 21.6465 21.8496C21.8926 22.0957 22.0156 22.3945 22.0156 22.7461V24.0117ZM21.3828 27.1582C21.5586 27.1582 21.7227 27.2578 21.875 27.457C22.0273 27.6562 22.2148 27.873 22.4375 28.1074C22.6484 28.3418 22.918 28.5586 23.2461 28.7578C23.5742 28.957 24.0078 29.0566 24.5469 29.0566C24.7227 29.0566 24.875 29.1211 25.0039 29.25C25.1211 29.3672 25.1797 29.5137 25.1797 29.6895C25.1797 29.8652 25.1211 30.0176 25.0039 30.1465C24.875 30.2637 24.7227 30.3223 24.5469 30.3223C24.1719 30.3223 23.8027 30.2754 23.4395 30.1816C23.0645 30.0762 22.7129 29.9297 22.3848 29.7422C22.0566 29.543 21.7578 29.3086 21.4883 29.0391C21.2188 28.7578 21.002 28.4473 20.8379 28.1074C20.7793 27.9902 20.75 27.8848 20.75 27.791C20.75 27.627 20.8145 27.4805 20.9434 27.3516C21.0723 27.2227 21.2188 27.1582 21.3828 27.1582ZM32.123 31.5879V30.3223C32.123 29.9707 32 29.6719 31.7539 29.4258C31.5078 29.1797 31.209 29.0566 30.8574 29.0566V28.8633C30.8574 28.7812 30.8398 28.7109 30.8047 28.6523C30.7812 28.5938 30.752 28.5352 30.7168 28.4766C30.623 28.6406 30.5293 28.7988 30.4355 28.9512C30.3535 29.1035 30.2539 29.25 30.1367 29.3906C30.0078 29.5547 29.8672 29.707 29.7148 29.8477C29.5742 29.9883 29.4512 30.1406 29.3457 30.3047L29.6094 30.3223C29.6094 30.4746 29.6387 30.627 29.6973 30.7793C29.7559 30.9199 29.832 31.0547 29.9258 31.1836C30.0312 31.3008 30.1484 31.4004 30.2773 31.4824C30.418 31.5527 30.5703 31.5879 30.7344 31.5879H32.123ZM18.3594 31.5879C18.5117 31.5879 18.6582 31.5527 18.7988 31.4824C18.9395 31.4004 19.0625 31.3008 19.168 31.1836C19.2734 31.0547 19.3555 30.9199 19.4141 30.7793C19.4727 30.627 19.502 30.4746 19.502 30.3223C19.6074 30.3223 19.6895 30.3164 19.748 30.3047C19.6426 30.1406 19.5137 29.9883 19.3613 29.8477C19.209 29.707 19.0742 29.5547 18.957 29.3906C18.7344 29.0742 18.541 28.7695 18.377 28.4766C18.2832 28.6641 18.2363 28.8574 18.2363 29.0566H18.1309C17.9902 29.0684 17.8672 29.1094 17.7617 29.1797C17.6562 29.25 17.5449 29.3027 17.4277 29.3379C17.3691 29.3965 17.3164 29.4609 17.2695 29.5312C17.2227 29.6016 17.1699 29.666 17.1113 29.7246L17.041 29.8828C17.041 29.9414 17.0293 29.9941 17.0059 30.041C16.9824 30.0879 16.9707 30.1406 16.9707 30.1992V31.5879H18.3594ZM24.5469 26.5254C24.207 26.5254 23.9141 26.4023 23.668 26.1562C23.4102 25.9102 23.2812 25.6172 23.2812 25.2773H25.8125C25.8125 25.6172 25.6895 25.9102 25.4434 26.1562C25.1855 26.4023 24.8867 26.5254 24.5469 26.5254Z" fill="#2563EB"/>
<path d="M37.1855 0C38.2285 0 39.2363 0.134766 40.209 0.404297C41.1816 0.673828 42.084 1.06055 42.916 1.56445C43.7598 2.05664 44.5273 2.64844 45.2188 3.33984C45.9102 4.03125 46.502 4.79883 46.9941 5.64258C47.498 6.47461 47.8848 7.37695 48.1543 8.34961C48.4238 9.32227 48.5586 10.3301 48.5586 11.373V20.2148C48.5586 20.918 48.4473 21.5977 48.2246 22.2539C48.002 22.9102 47.7031 23.5312 47.3281 24.1172C47.7383 24.7617 48.043 25.4531 48.2422 26.1914C48.4531 26.9297 48.5586 27.6855 48.5586 28.459V40.4297H25.8125V28.4238C25.8125 27.6621 25.9121 26.918 26.1113 26.1914C26.3223 25.4531 26.6328 24.7676 27.043 24.1348C26.668 23.5371 26.3691 22.9102 26.1465 22.2539C25.9238 21.5977 25.8125 20.918 25.8125 20.2148V11.373C25.8125 10.3301 25.9473 9.32227 26.2168 8.34961C26.4863 7.37695 26.8672 6.47461 27.3594 5.64258C27.8633 4.79883 28.4609 4.03125 29.1523 3.33984C29.8438 2.64844 30.6055 2.05664 31.4375 1.56445C32.2812 1.06055 33.1895 0.673828 34.1621 0.404297C35.1348 0.134766 36.1426 0 37.1855 0ZM46.0273 37.8984V28.4414C46.0273 27.6562 45.8809 26.918 45.5879 26.2266C45.2949 25.5352 44.8906 24.9316 44.375 24.416C43.8711 23.9004 43.2734 23.4961 42.582 23.2031C41.8906 22.8984 41.1523 22.7461 40.3672 22.7461H34.0215C33.2363 22.7461 32.498 22.8984 31.8066 23.2031C31.127 23.4961 30.5293 23.9004 30.0137 24.416C29.498 24.9316 29.0879 25.5352 28.7832 26.2266C28.4902 26.9062 28.3438 27.6387 28.3438 28.4238V37.8984H46.0273ZM29.6094 11.373V13.9043C29.6094 14.9473 29.8086 15.9316 30.207 16.8574C30.6055 17.7715 31.1445 18.5742 31.8242 19.2656C32.5156 19.9453 33.3184 20.4844 34.2324 20.8828C35.1582 21.2812 36.1426 21.4805 37.1855 21.4805C38.2285 21.4805 39.207 21.2812 40.1211 20.8828C41.0469 20.4844 41.8496 19.9453 42.5293 19.2656C43.2207 18.5742 43.7656 17.7715 44.1641 16.8574C44.5625 15.9316 44.7617 14.9473 44.7617 13.9043V11.373C44.7617 10.9512 44.7266 10.5293 44.6562 10.1074C43.6016 10.084 42.6055 9.84375 41.668 9.38672C40.7305 8.91797 39.9102 8.29688 39.207 7.52344C38.7617 7.93359 38.252 8.25586 37.6777 8.49023C37.1152 8.72461 36.5293 8.8418 35.9199 8.8418V6.53906C35.5801 7.06641 35.1816 7.54688 34.7246 7.98047C34.2793 8.41406 33.7871 8.78906 33.248 9.10547C32.7207 9.41016 32.1582 9.65039 31.5605 9.82617C30.9629 10.002 30.3477 10.0957 29.7148 10.1074C29.6445 10.5293 29.6094 10.9512 29.6094 11.373ZM33.3887 10.1074C33.7402 10.1074 34.0391 10.2305 34.2852 10.4766C34.5312 10.7227 34.6543 11.0215 34.6543 11.373V12.6387C34.6543 12.9902 34.5312 13.2891 34.2852 13.5352C34.0391 13.7812 33.7402 13.9043 33.3887 13.9043C33.0371 13.9043 32.7383 13.7812 32.4922 13.5352C32.2461 13.2891 32.123 12.9902 32.123 12.6387V11.373C32.123 11.0215 32.2461 10.7227 32.4922 10.4766C32.7383 10.2305 33.0371 10.1074 33.3887 10.1074ZM42.2305 12.6387C42.2305 12.9902 42.1074 13.2891 41.8613 13.5352C41.6152 13.7812 41.3164 13.9043 40.9648 13.9043C40.625 13.9043 40.332 13.7812 40.0859 13.5352C39.8398 13.2773 39.7168 12.9785 39.7168 12.6387V11.373C39.7168 11.0332 39.8398 10.7402 40.0859 10.4941C40.332 10.2363 40.625 10.1074 40.9648 10.1074C41.3164 10.1074 41.6152 10.2305 41.8613 10.4766C42.1074 10.7227 42.2305 11.0215 42.2305 11.373V12.6387ZM37.1328 18.9492C36.9688 18.9492 36.7461 18.9199 36.4648 18.8613C36.1836 18.791 35.9082 18.6973 35.6387 18.5801C35.3691 18.4629 35.1348 18.3223 34.9355 18.1582C34.748 17.9824 34.6543 17.7891 34.6543 17.5781C34.6543 17.4141 34.7129 17.2734 34.8301 17.1562C34.9473 17.0391 35.0879 16.9805 35.252 16.9805C35.3457 16.9805 35.4512 17.0215 35.5684 17.1035C35.6973 17.1855 35.832 17.2734 35.9727 17.3672C36.125 17.4609 36.2949 17.5488 36.4824 17.6309C36.6816 17.7129 36.8984 17.7539 37.1328 17.7539C37.3672 17.7539 37.5781 17.7129 37.7656 17.6309C37.9648 17.5488 38.1348 17.4609 38.2754 17.3672C38.4277 17.2734 38.5625 17.1855 38.6797 17.1035C38.8086 17.0215 38.9199 16.9805 39.0137 16.9805C39.1777 16.9805 39.3184 17.0391 39.4355 17.1562C39.5527 17.2734 39.6113 17.4141 39.6113 17.5781C39.6113 17.7891 39.5117 17.9824 39.3125 18.1582C39.125 18.3223 38.8965 18.4629 38.627 18.5801C38.3574 18.6973 38.082 18.791 37.8008 18.8613C37.5195 18.9199 37.2969 18.9492 37.1328 18.9492ZM37.1855 15.1699C36.8457 15.1699 36.5469 15.0469 36.2891 14.8008C36.043 14.543 35.9199 14.2441 35.9199 13.9043H38.4512C38.4512 14.2441 38.3223 14.543 38.0645 14.8008C37.8184 15.0469 37.5254 15.1699 37.1855 15.1699Z" fill="#2563EB"/>
<path d="M11.873 0H24.5117V3.79688C24.5117 4.89844 24.2891 5.92969 23.8438 6.89062C23.4102 7.83984 22.7891 8.68359 21.9805 9.42188C21.9805 9.94922 21.9863 10.4648 21.998 10.9688C22.0098 11.4727 22.0156 11.9883 22.0156 12.5156C22.0156 13.1719 21.9922 13.8047 21.9453 14.4141C21.9102 15.0117 21.8281 15.6035 21.6992 16.1895C21.5703 16.7637 21.3887 17.332 21.1543 17.8945C20.9316 18.4453 20.6328 18.9961 20.2578 19.5469C20.0586 19.8398 19.8477 20.127 19.625 20.4082C19.4023 20.6895 19.1562 20.9414 18.8867 21.1641C19.5664 21.5273 20.1758 21.9668 20.7148 22.4824C21.2539 22.998 21.7109 23.5723 22.0859 24.2051C22.4609 24.8379 22.748 25.5117 22.9473 26.2266C23.1465 26.9414 23.2461 27.6855 23.2461 28.459V40.4297H0.5V28.4238C0.5 27.6855 0.599609 26.959 0.798828 26.2441C1.00977 25.5176 1.30273 24.8379 1.67773 24.2051C2.05273 23.5605 2.50977 22.9805 3.04883 22.4648C3.58789 21.9492 4.19141 21.5215 4.85938 21.1816C3.85156 20.1855 3.08398 19.0781 2.55664 17.8594C2.0293 16.6406 1.76562 15.3223 1.76562 13.9043V10.5996C1.76562 10.3418 1.76562 10.0898 1.76562 9.84375C1.77734 9.58594 1.79492 9.32812 1.81836 9.07031C1.93555 7.79297 2.28125 6.60352 2.85547 5.50195C3.44141 4.38867 4.18555 3.42773 5.08789 2.61914C6.00195 1.79883 7.03906 1.16016 8.19922 0.703125C9.35938 0.234375 10.584 0 11.873 0ZM20.7148 28.4414C20.7148 27.6562 20.5684 26.918 20.2754 26.2266C19.9824 25.5352 19.5781 24.9316 19.0625 24.416C18.5586 23.9004 17.9609 23.4961 17.2695 23.2031C16.5781 22.8984 15.8398 22.7461 15.0547 22.7461H8.70898C7.92383 22.7461 7.18555 22.8984 6.49414 23.2031C5.81445 23.4961 5.2168 23.9004 4.70117 24.416C4.18555 24.9316 3.77539 25.5352 3.4707 26.2266C3.17773 26.9062 3.03125 27.6387 3.03125 28.4238V37.8984H20.7148V28.4414ZM19.4492 13.9043V11.3906H18.166V10.8809C18.166 10.541 18.1602 10.207 18.1484 9.87891C18.1367 9.55078 18.1016 9.2168 18.043 8.87695H11.873C11.5801 8.87695 11.293 8.82422 11.0117 8.71875C10.7422 8.60156 10.4961 8.44922 10.2734 8.26172C10.0508 8.07422 9.85742 7.85742 9.69336 7.61133C9.54102 7.35352 9.43555 7.08398 9.37695 6.80273V8.87695C9.03711 8.87695 8.71484 8.8125 8.41016 8.68359C8.10547 8.55469 7.83594 8.37891 7.60156 8.15625C7.36719 7.92188 7.17383 7.6582 7.02148 7.36523C6.88086 7.06055 6.80469 6.73828 6.79297 6.39844C6.5 6.80859 6.27148 7.20703 6.10742 7.59375C5.94336 7.98047 5.82031 8.37891 5.73828 8.78906C5.66797 9.1875 5.62109 9.60352 5.59766 10.0371C5.58594 10.459 5.58008 10.9102 5.58008 11.3906H4.29688V13.9043C4.29688 14.9473 4.49609 15.9316 4.89453 16.8574C5.29297 17.7715 5.83203 18.5742 6.51172 19.2656C7.20312 19.9453 8.00586 20.4844 8.91992 20.8828C9.8457 21.2812 10.8301 21.4805 11.873 21.4805C12.916 21.4805 13.8945 21.2812 14.8086 20.8828C15.7344 20.4844 16.5371 19.9453 17.2168 19.2656C17.9082 18.5742 18.4531 17.7715 18.8516 16.8574C19.25 15.9316 19.4492 14.9473 19.4492 13.9043ZM9.3418 11.373V12.6387C9.3418 12.9902 9.21875 13.2891 8.97266 13.5352C8.72656 13.7812 8.42773 13.9043 8.07617 13.9043C7.72461 13.9043 7.42578 13.7812 7.17969 13.5352C6.93359 13.2891 6.81055 12.9902 6.81055 12.6387V11.373C6.81055 11.0215 6.93359 10.7227 7.17969 10.4766C7.42578 10.2305 7.72461 10.1074 8.07617 10.1074C8.42773 10.1074 8.72656 10.2305 8.97266 10.4766C9.21875 10.7227 9.3418 11.0215 9.3418 11.373ZM15.6523 10.1074C16.0039 10.1074 16.3027 10.2305 16.5488 10.4766C16.7949 10.7227 16.918 11.0215 16.918 11.373V12.6387C16.918 12.9902 16.7949 13.2891 16.5488 13.5352C16.3027 13.7812 16.0039 13.9043 15.6523 13.9043C15.3125 13.9043 15.0195 13.7812 14.7734 13.5352C14.5273 13.2773 14.4043 12.9785 14.4043 12.6387V11.373C14.4043 11.0332 14.5273 10.7402 14.7734 10.4941C15.0195 10.2363 15.3125 10.1074 15.6523 10.1074ZM11.7148 17.7539C11.9609 17.7539 12.1777 17.7129 12.3652 17.6309C12.5527 17.5488 12.7227 17.4609 12.875 17.3672C13.0273 17.2734 13.1621 17.1855 13.2793 17.1035C13.3965 17.0215 13.502 16.9805 13.5957 16.9805C13.7598 16.9805 13.9004 17.0391 14.0176 17.1562C14.1348 17.2734 14.1934 17.4141 14.1934 17.5781C14.1934 17.7891 14.0938 17.9824 13.8945 18.1582C13.707 18.3223 13.4785 18.4629 13.209 18.5801C12.9395 18.6973 12.6641 18.791 12.3828 18.8613C12.1016 18.9199 11.8789 18.9492 11.7148 18.9492C11.5508 18.9492 11.3281 18.9199 11.0469 18.8613C10.7656 18.791 10.4902 18.6973 10.2207 18.5801C9.95117 18.4629 9.7168 18.3223 9.51758 18.1582C9.33008 17.9824 9.23633 17.7891 9.23633 17.5781C9.23633 17.4141 9.29492 17.2734 9.41211 17.1562C9.5293 17.0391 9.66992 16.9805 9.83398 16.9805C9.92773 16.9805 10.0332 17.0215 10.1504 17.1035C10.2793 17.1855 10.4141 17.2734 10.5547 17.3672C10.707 17.4609 10.877 17.5488 11.0645 17.6309C11.2637 17.7129 11.4805 17.7539 11.7148 17.7539ZM11.873 15.1699C11.5332 15.1699 11.2344 15.0469 10.9766 14.8008C10.7305 14.543 10.6074 14.2441 10.6074 13.9043H13.1387C13.1387 14.2441 13.0098 14.543 12.752 14.8008C12.5059 15.0469 12.2129 15.1699 11.873 15.1699Z" fill="#2563EB"/>
</svg>
