<svg width="18" height="17" viewBox="0 0 18 17" fill="none" xmlns="http://www.w3.org/2000/svg">
<path d="M11.6719 9.54688C11.8438 9.54688 12.0208 9.57552 12.2031 9.63281L16.1875 10.9609C16.3542 11.0182 16.5078 11.1016 16.6484 11.2109C16.7943 11.3151 16.9167 11.4375 17.0156 11.5781C17.1198 11.7188 17.2005 11.875 17.2578 12.0469C17.3151 12.2135 17.3438 12.3854 17.3438 12.5625C17.3438 12.6823 17.3255 12.8151 17.2891 12.9609C17.2578 13.1068 17.2188 13.2552 17.1719 13.4062C17.125 13.5573 17.0729 13.7083 17.0156 13.8594C16.9635 14.0052 16.9141 14.1406 16.8672 14.2656C16.6953 14.7292 16.4792 15.1224 16.2188 15.4453C15.9583 15.7734 15.6589 16.0417 15.3203 16.25C14.9818 16.4583 14.6042 16.6094 14.1875 16.7031C13.776 16.7969 13.3307 16.8438 12.8516 16.8438C11.7161 16.8438 10.6224 16.6953 9.57031 16.3984C8.51823 16.1068 7.53385 15.6927 6.61719 15.1562C5.70052 14.6198 4.86719 13.9766 4.11719 13.2266C3.36719 12.4766 2.72396 11.6432 2.1875 10.7266C1.65104 9.8099 1.23438 8.82552 0.9375 7.77344C0.645833 6.72135 0.5 5.6276 0.5 4.49219V4.07031C0.5 3.64844 0.5625 3.2526 0.6875 2.88281C0.8125 2.51302 0.986979 2.17448 1.21094 1.86719C1.4401 1.5599 1.71354 1.28906 2.03125 1.05469C2.34896 0.820312 2.70052 0.630208 3.08594 0.484375C3.20052 0.442708 3.33073 0.393229 3.47656 0.335938C3.6224 0.278646 3.77083 0.226562 3.92188 0.179688C4.07812 0.127604 4.22917 0.0859375 4.375 0.0546875C4.52604 0.0182292 4.66146 0 4.78125 0C4.95833 0 5.13021 0.0286458 5.29688 0.0859375C5.46875 0.143229 5.625 0.223958 5.76562 0.328125C5.90625 0.427083 6.02865 0.549479 6.13281 0.695312C6.24219 0.835938 6.32552 0.989583 6.38281 1.15625L7.71094 5.14062C7.76823 5.32292 7.79688 5.5 7.79688 5.67188C7.79688 5.91146 7.76302 6.11979 7.69531 6.29688C7.63281 6.46875 7.53906 6.61979 7.41406 6.75C7.29427 6.88021 7.14844 6.99479 6.97656 7.09375C6.8099 7.1875 6.625 7.27344 6.42188 7.35156C6.30208 7.39323 6.17969 7.43229 6.05469 7.46875C5.92969 7.50521 5.8125 7.55208 5.70312 7.60938C5.66667 7.63021 5.63281 7.66667 5.60156 7.71875C5.57031 7.77083 5.55469 7.81771 5.55469 7.85938C5.55469 7.93229 5.57552 7.98958 5.61719 8.03125C5.66406 8.07292 5.70833 8.11458 5.75 8.15625L9.19531 11.5938C9.23698 11.6354 9.27604 11.6797 9.3125 11.7266C9.35417 11.7682 9.41146 11.7891 9.48438 11.7891C9.52604 11.7891 9.57292 11.7734 9.625 11.7422C9.67708 11.7109 9.71354 11.6771 9.73438 11.6406C9.79167 11.5312 9.83854 11.4141 9.875 11.2891C9.91146 11.1641 9.95052 11.0443 9.99219 10.9297C10.0703 10.7266 10.1562 10.5417 10.25 10.375C10.349 10.2031 10.4635 10.0573 10.5938 9.9375C10.724 9.8125 10.875 9.71615 11.0469 9.64844C11.224 9.58073 11.4323 9.54688 11.6719 9.54688ZM13.2734 15.7188C13.5599 15.7188 13.8359 15.6745 14.1016 15.5859C14.3672 15.4974 14.6094 15.3724 14.8281 15.2109C15.0521 15.0547 15.2448 14.8646 15.4062 14.6406C15.5729 14.4167 15.7031 14.1693 15.7969 13.8984C15.8854 13.6484 15.9583 13.3932 16.0156 13.1328C16.0781 12.8724 16.1458 12.612 16.2188 12.3516L11.1719 10.6719L10.7422 12.2188C10.6484 12.3125 10.5573 12.401 10.4688 12.4844C10.3802 12.5677 10.2865 12.6432 10.1875 12.7109C10.0885 12.7734 9.98177 12.8229 9.86719 12.8594C9.7526 12.8958 9.625 12.9141 9.48438 12.9141C9.23958 12.9141 9.03125 12.862 8.85938 12.7578C8.6875 12.6536 8.52083 12.5182 8.35938 12.3516L4.99219 8.98438C4.82552 8.81771 4.6901 8.65104 4.58594 8.48438C4.48177 8.31771 4.42969 8.10938 4.42969 7.85938C4.42969 7.58333 4.49479 7.34635 4.625 7.14844C4.76042 6.95052 4.92969 6.76823 5.13281 6.60156L6.67969 6.17969L4.99219 1.125C4.73177 1.19792 4.47135 1.26562 4.21094 1.32812C3.95052 1.38542 3.69531 1.45833 3.44531 1.54688C3.17448 1.64062 2.92708 1.77083 2.70312 1.9375C2.47917 2.09896 2.28646 2.29167 2.125 2.51562C1.96875 2.73438 1.84635 2.97656 1.75781 3.24219C1.66927 3.50781 1.625 3.78385 1.625 4.07031V4.49219C1.625 5.52865 1.75781 6.52604 2.02344 7.48438C2.29427 8.4375 2.67188 9.33073 3.15625 10.1641C3.64583 10.9922 4.23177 11.7474 4.91406 12.4297C5.59635 13.112 6.35156 13.6953 7.17969 14.1797C8.01302 14.6693 8.90625 15.0469 9.85938 15.3125C10.8177 15.5833 11.8151 15.7188 12.8516 15.7188H13.2734Z" fill="#9CA3AF"/>
</svg>
