<svg width="34" height="41" viewBox="0 0 34 41" fill="none" xmlns="http://www.w3.org/2000/svg">
<path d="M26.4277 10.8984C26.5566 11.1094 26.6973 11.2969 26.8496 11.4609C27.0137 11.625 27.1895 11.7891 27.377 11.9531C28.291 12.7969 29.1172 13.6582 29.8555 14.5371C30.5938 15.416 31.2207 16.3477 31.7363 17.332C32.252 18.3047 32.6504 19.3418 32.9316 20.4434C33.2129 21.5332 33.3535 22.7227 33.3535 24.0117C33.3535 25.5234 33.1543 26.9766 32.7559 28.3711C32.3691 29.7656 31.8184 31.0723 31.1035 32.291C30.3887 33.5098 29.5273 34.6172 28.5195 35.6133C27.5234 36.6094 26.416 37.4648 25.1973 38.1797C23.9785 38.8945 22.6719 39.4453 21.2773 39.832C19.8828 40.2305 18.4297 40.4297 16.918 40.4297C15.4062 40.4297 13.9531 40.2305 12.5586 39.832C11.1641 39.4453 9.85742 38.8945 8.63867 38.1797C7.41992 37.4648 6.3125 36.6094 5.31641 35.6133C4.32031 34.6172 3.46484 33.5098 2.75 32.291C2.03516 31.0723 1.47852 29.7656 1.08008 28.3711C0.693359 26.9766 0.5 25.5234 0.5 24.0117C0.5 22.7227 0.640625 21.5332 0.921875 20.4434C1.20312 19.3418 1.60156 18.3047 2.11719 17.332C2.63281 16.3477 3.25977 15.416 3.99805 14.5371C4.73633 13.6582 5.5625 12.7969 6.47656 11.9531C6.66406 11.7891 6.83398 11.625 6.98633 11.4609C7.15039 11.2969 7.29688 11.1094 7.42578 10.8984C7.01562 10.2773 6.81055 9.5918 6.81055 8.8418C6.81055 8.44336 6.88672 8.02734 7.03906 7.59375C6.58203 7.06641 6.21875 6.48047 5.94922 5.83594C5.67969 5.17969 5.54492 4.5 5.54492 3.79688C5.54492 3.26953 5.64453 2.77734 5.84375 2.32031C6.04297 1.86328 6.3125 1.46484 6.65234 1.125C7.00391 0.773438 7.4082 0.498047 7.86523 0.298828C8.32227 0.0996094 8.81445 0 9.3418 0H24.5117C25.0273 0 25.5137 0.105469 25.9707 0.316406C26.4277 0.515625 26.8262 0.791016 27.166 1.14258C27.5176 1.48242 27.793 1.88672 27.9922 2.35547C28.1914 2.8125 28.291 3.29297 28.291 3.79688C28.291 4.5 28.1562 5.17969 27.8867 5.83594C27.6289 6.48047 27.2715 7.06641 26.8145 7.59375C26.9551 8.00391 27.0254 8.41992 27.0254 8.8418C27.0254 9.58008 26.8262 10.2656 26.4277 10.8984ZM16.918 37.8984C18.1953 37.8984 19.4258 37.7344 20.6094 37.4062C21.793 37.0781 22.9004 36.6094 23.9316 36C24.9629 35.4023 25.9004 34.6758 26.7441 33.8203C27.5879 32.9766 28.3086 32.0449 28.9062 31.0254C29.5156 29.9941 29.9844 28.8867 30.3125 27.7031C30.6523 26.5195 30.8223 25.2891 30.8223 24.0117C30.8223 22.9102 30.6992 21.9023 30.4531 20.9883C30.2188 20.0742 29.8789 19.2129 29.4336 18.4043C29 17.5957 28.4727 16.8281 27.8516 16.1016C27.2305 15.3633 26.5332 14.6309 25.7598 13.9043C25.4668 13.623 25.1914 13.3418 24.9336 13.0605C24.6758 12.7793 24.4473 12.4863 24.248 12.1816C24.0488 11.877 23.873 11.5547 23.7207 11.2148C23.5801 10.8633 23.4688 10.4824 23.3867 10.0723C22.9297 10.1074 22.4668 10.125 21.998 10.125H11.3809C11.0645 10.125 10.7598 10.1074 10.4668 10.0723C10.3848 10.4941 10.2676 10.8809 10.1152 11.2324C9.97461 11.5723 9.79883 11.8945 9.58789 12.1992C9.38867 12.4922 9.16016 12.7793 8.90234 13.0605C8.65625 13.3418 8.38086 13.623 8.07617 13.9043C7.31445 14.6191 6.62305 15.3457 6.00195 16.084C5.38086 16.8223 4.84766 17.5957 4.40234 18.4043C3.96875 19.2129 3.62891 20.0801 3.38281 21.0059C3.14844 21.9199 3.03125 22.9219 3.03125 24.0117C3.03125 25.9336 3.39453 27.7383 4.12109 29.4258C4.84766 31.1016 5.83789 32.5664 7.0918 33.8203C8.35742 35.0859 9.82812 36.082 11.5039 36.8086C13.1914 37.5352 14.9961 37.8984 16.918 37.8984ZM16.918 18.9492C16.5781 18.9492 16.2793 19.0781 16.0215 19.3359C15.7754 19.582 15.6523 19.875 15.6523 20.2148C15.6523 20.5781 15.7754 20.9355 16.0215 21.2871C16.2793 21.627 16.5957 21.9785 16.9707 22.3418C17.3457 22.7051 17.75 23.0801 18.1836 23.4668C18.6172 23.8535 19.0215 24.2695 19.3965 24.7148C19.7715 25.1484 20.082 25.623 20.3281 26.1387C20.5859 26.6426 20.7148 27.1934 20.7148 27.791C20.7148 28.2012 20.6504 28.5938 20.5215 28.9688C20.4043 29.332 20.2344 29.666 20.0117 29.9707C19.7891 30.2754 19.5195 30.5508 19.2031 30.7969C18.8984 31.0312 18.5586 31.2188 18.1836 31.3594V34.1191H15.6523V31.3594C15.2773 31.2188 14.9316 31.0312 14.6152 30.7969C14.3105 30.5508 14.0469 30.2754 13.8242 29.9707C13.6016 29.666 13.4316 29.332 13.3145 28.9688C13.1973 28.5938 13.1387 28.2012 13.1387 27.791H15.6523C15.6523 28.1309 15.7754 28.4297 16.0215 28.6875C16.2793 28.9336 16.5781 29.0566 16.918 29.0566C17.2695 29.0566 17.5684 28.9336 17.8145 28.6875C18.0605 28.4414 18.1836 28.1426 18.1836 27.791C18.1836 27.4629 18.084 27.1641 17.8848 26.8945C17.6973 26.625 17.498 26.3789 17.2871 26.1562C16.877 25.7227 16.4551 25.3008 16.0215 24.8906C15.5996 24.4805 15.1836 24.0645 14.7734 23.6426C14.5156 23.3848 14.2812 23.1328 14.0703 22.8867C13.8711 22.6406 13.7012 22.3828 13.5605 22.1133C13.4199 21.8438 13.3145 21.5566 13.2441 21.252C13.1738 20.9473 13.1387 20.6016 13.1387 20.2148C13.1387 19.8164 13.1973 19.4355 13.3145 19.0723C13.4316 18.6973 13.6016 18.3574 13.8242 18.0527C14.0469 17.7363 14.3105 17.4609 14.6152 17.2266C14.9316 16.9922 15.2773 16.8047 15.6523 16.6641V13.9043H18.1836V16.6641C18.5586 16.8047 18.8984 16.9922 19.2031 17.2266C19.5195 17.4609 19.7891 17.7363 20.0117 18.0527C20.2344 18.3574 20.4043 18.6973 20.5215 19.0723C20.6504 19.4355 20.7148 19.8164 20.7148 20.2148H18.1836C18.1836 19.8633 18.0605 19.5645 17.8145 19.3184C17.5684 19.0723 17.2695 18.9492 16.918 18.9492ZM9.3418 2.53125C8.99023 2.53125 8.69141 2.6543 8.44531 2.90039C8.19922 3.14648 8.07617 3.44531 8.07617 3.79688C8.07617 4.3125 8.1582 4.72852 8.32227 5.04492C8.49805 5.36133 8.70312 5.64844 8.9375 5.90625C9.18359 6.15234 9.43555 6.4043 9.69336 6.66211C9.95117 6.91992 10.168 7.24219 10.3438 7.62891C10.3906 7.61719 10.4316 7.60547 10.4668 7.59375C10.5137 7.58203 10.5605 7.57617 10.6074 7.57617H23.2461C23.293 7.57617 23.334 7.58203 23.3691 7.59375C23.416 7.60547 23.4629 7.61719 23.5098 7.62891C23.6855 7.23047 23.9023 6.9082 24.1602 6.66211C24.418 6.4043 24.6641 6.15234 24.8984 5.90625C25.1328 5.66016 25.332 5.37891 25.4961 5.0625C25.6719 4.74609 25.7598 4.32422 25.7598 3.79688C25.7598 3.45703 25.6367 3.16406 25.3906 2.91797C25.1445 2.66016 24.8516 2.53125 24.5117 2.53125C24.207 2.53125 23.9609 2.60156 23.7734 2.74219C23.5859 2.87109 23.4043 3.01758 23.2285 3.18164C23.0645 3.33398 22.8887 3.47461 22.7012 3.60352C22.5137 3.73242 22.2734 3.79688 21.9805 3.79688C21.6758 3.79688 21.4297 3.73242 21.2422 3.60352C21.0547 3.47461 20.873 3.33398 20.6973 3.18164C20.5332 3.01758 20.3574 2.87109 20.1699 2.74219C19.9824 2.60156 19.7422 2.53125 19.4492 2.53125C19.1445 2.53125 18.8984 2.60156 18.7109 2.74219C18.5234 2.87109 18.3418 3.01758 18.166 3.18164C18.002 3.33398 17.8262 3.47461 17.6387 3.60352C17.4512 3.73242 17.2109 3.79688 16.918 3.79688C16.6133 3.79688 16.3672 3.73242 16.1797 3.60352C15.9922 3.47461 15.8164 3.33398 15.6523 3.18164C15.5 3.01758 15.3301 2.87109 15.1426 2.74219C14.9551 2.60156 14.709 2.53125 14.4043 2.53125C14.0996 2.53125 13.8535 2.60156 13.666 2.74219C13.4785 2.87109 13.2969 3.01758 13.1211 3.18164C12.957 3.33398 12.7812 3.47461 12.5938 3.60352C12.4062 3.73242 12.166 3.79688 11.873 3.79688C11.5684 3.79688 11.3223 3.73242 11.1348 3.60352C10.9473 3.47461 10.7656 3.33398 10.5898 3.18164C10.4258 3.01758 10.25 2.87109 10.0625 2.74219C9.875 2.60156 9.63477 2.53125 9.3418 2.53125Z" fill="#2563EB"/>
</svg>
