<svg width="39" height="38" viewBox="0 0 39 38" fill="none" xmlns="http://www.w3.org/2000/svg">
<path d="M25.6875 21.4805C26.0742 21.4805 26.4727 21.5449 26.8828 21.6738L35.8477 24.6621C36.2227 24.791 36.5684 24.9785 36.8848 25.2246C37.2129 25.459 37.4883 25.7344 37.7109 26.0508C37.9453 26.3672 38.127 26.7188 38.2559 27.1055C38.3848 27.4805 38.4492 27.8672 38.4492 28.2656C38.4492 28.5352 38.4082 28.834 38.3262 29.1621C38.2559 29.4902 38.168 29.8242 38.0625 30.1641C37.957 30.5039 37.8398 30.8438 37.7109 31.1836C37.5938 31.5117 37.4824 31.8164 37.377 32.0977C36.9902 33.1406 36.5039 34.0254 35.918 34.752C35.332 35.4902 34.6582 36.0938 33.8965 36.5625C33.1348 37.0312 32.2852 37.3711 31.3477 37.582C30.4219 37.793 29.4199 37.8984 28.3418 37.8984C25.7871 37.8984 23.3262 37.5645 20.959 36.8965C18.5918 36.2402 16.377 35.3086 14.3145 34.1016C12.252 32.8945 10.377 31.4473 8.68945 29.7598C7.00195 28.0723 5.55469 26.1973 4.34766 24.1348C3.14062 22.0723 2.20312 19.8574 1.53516 17.4902C0.878906 15.123 0.550781 12.6621 0.550781 10.1074V9.1582C0.550781 8.20898 0.691406 7.31836 0.972656 6.48633C1.25391 5.6543 1.64648 4.89258 2.15039 4.20117C2.66602 3.50977 3.28125 2.90039 3.99609 2.37305C4.71094 1.8457 5.50195 1.41797 6.36914 1.08984C6.62695 0.996094 6.91992 0.884766 7.24805 0.755859C7.57617 0.626953 7.91016 0.509766 8.25 0.404297C8.60156 0.287109 8.94141 0.193359 9.26953 0.123047C9.60938 0.0410156 9.91406 0 10.1836 0C10.582 0 10.9688 0.0644531 11.3438 0.193359C11.7305 0.322266 12.082 0.503906 12.3984 0.738281C12.7148 0.960938 12.9902 1.23633 13.2246 1.56445C13.4707 1.88086 13.6582 2.22656 13.7871 2.60156L16.7754 11.5664C16.9043 11.9766 16.9688 12.375 16.9688 12.7617C16.9688 13.3008 16.8926 13.7695 16.7402 14.168C16.5996 14.5547 16.3887 14.8945 16.1074 15.1875C15.8379 15.4805 15.5098 15.7383 15.123 15.9609C14.748 16.1719 14.332 16.3652 13.875 16.541C13.6055 16.6348 13.3301 16.7227 13.0488 16.8047C12.7676 16.8867 12.5039 16.9922 12.2578 17.1211C12.1758 17.168 12.0996 17.25 12.0293 17.3672C11.959 17.4844 11.9238 17.5898 11.9238 17.6836C11.9238 17.8477 11.9707 17.9766 12.0645 18.0703C12.1699 18.1641 12.2695 18.2578 12.3633 18.3516L20.1152 26.0859C20.209 26.1797 20.2969 26.2793 20.3789 26.3848C20.4727 26.4785 20.6016 26.5254 20.7656 26.5254C20.8594 26.5254 20.9648 26.4902 21.082 26.4199C21.1992 26.3496 21.2812 26.2734 21.3281 26.1914C21.457 25.9453 21.5625 25.6816 21.6445 25.4004C21.7266 25.1191 21.8145 24.8496 21.9082 24.5918C22.084 24.1348 22.2773 23.7188 22.4883 23.3438C22.7109 22.957 22.9688 22.6289 23.2617 22.3594C23.5547 22.0781 23.8945 21.8613 24.2812 21.709C24.6797 21.5566 25.1484 21.4805 25.6875 21.4805ZM29.291 35.3672C29.9355 35.3672 30.5566 35.2676 31.1543 35.0684C31.752 34.8691 32.2969 34.5879 32.7891 34.2246C33.293 33.873 33.7266 33.4453 34.0898 32.9414C34.4648 32.4375 34.7578 31.8809 34.9688 31.2715C35.168 30.709 35.332 30.1348 35.4609 29.5488C35.6016 28.9629 35.7539 28.377 35.918 27.791L24.5625 24.0117L23.5957 27.4922C23.3848 27.7031 23.1797 27.9023 22.9805 28.0898C22.7812 28.2773 22.5703 28.4473 22.3477 28.5996C22.125 28.7402 21.8848 28.8516 21.627 28.9336C21.3691 29.0156 21.082 29.0566 20.7656 29.0566C20.2148 29.0566 19.7461 28.9395 19.3594 28.7051C18.9727 28.4707 18.5977 28.166 18.2344 27.791L10.6582 20.2148C10.2832 19.8398 9.97852 19.4648 9.74414 19.0898C9.50977 18.7148 9.39258 18.2461 9.39258 17.6836C9.39258 17.0625 9.53906 16.5293 9.83203 16.084C10.1367 15.6387 10.5176 15.2285 10.9746 14.8535L14.4551 13.9043L10.6582 2.53125C10.0723 2.69531 9.48633 2.84766 8.90039 2.98828C8.31445 3.11719 7.74023 3.28125 7.17773 3.48047C6.56836 3.69141 6.01172 3.98438 5.50781 4.35938C5.00391 4.72266 4.57031 5.15625 4.20703 5.66016C3.85547 6.15234 3.58008 6.69727 3.38086 7.29492C3.18164 7.89258 3.08203 8.51367 3.08203 9.1582V10.1074C3.08203 12.4395 3.38086 14.6836 3.97852 16.8398C4.58789 18.9844 5.4375 20.9941 6.52734 22.8691C7.62891 24.7324 8.94727 26.4316 10.4824 27.9668C12.0176 29.502 13.7168 30.8145 15.5801 31.9043C17.4551 33.0059 19.4648 33.8555 21.6094 34.4531C23.7656 35.0625 26.0098 35.3672 28.3418 35.3672H29.291Z" fill="white"/>
</svg>
