<svg width="56" height="55" viewBox="0 0 56 55" fill="none" xmlns="http://www.w3.org/2000/svg">
<path d="M21.2306 32.8831C20.4666 33.1828 18.715 32.8536 18.179 32.6721C17.4488 32.3809 16.6088 32.5919 15.8491 32.5666C15.6845 31.9419 16.153 30.8403 16.7059 30.4689C17.0225 31.2497 17.7738 32.6932 18.2845 31.2075C18.1114 30.5491 18.1705 28.0335 17.0267 29.0338C15.8406 29.8231 15.0429 31.2919 13.726 31.8026C13.19 31.8364 12.6286 31.7309 12.5147 32.4146C9.98221 31.4903 10.9783 35.1286 9.13805 35.8081C10.5942 37.6146 7.51727 36.8169 7.65234 37.5471C9.66143 40.3877 1.94162 39.6322 5.5926 41.7215C7.63123 42.8906 7.94357 46.3728 8.95234 45.6383C8.50071 45.9633 9.43773 44.6929 9.65721 44.1906C9.9189 43.089 11.7634 43.9289 11.3118 42.4559C11.2527 41.0039 12.5906 41.312 13.5108 41.4767C14.4014 41.4935 14.8741 42.0844 15.2455 42.802C15.7689 43.1523 16.2965 43.4942 16.8368 43.8192C16.9085 43.8614 17.1406 43.8065 17.1449 43.777C17.8666 41.9874 18.964 42.4559 20.4793 42.6838C22.4462 42.4685 21.4501 44.2286 23.1848 44.4354C24.4215 44.714 23.8221 46.588 25.1601 46.8792C25.5316 47.0312 25.9283 47.2465 26.1816 47.5461C27.4182 49.3526 28.3848 47.0312 29.8368 47.7909C31.2296 48.3312 31.4238 48.175 31.7614 46.7357C33.3653 47.5081 35.9864 48.6562 37.5692 47.4237C37.9406 47.0818 38.3881 46.9679 38.9156 47.0607C39.553 47.1789 39.9075 46.9046 39.9582 46.2546C39.916 45.1107 39.6501 44.0049 41.2118 43.912C42.9043 44.2666 42.4231 45.4526 44.7994 45.5835C45.2468 45.7861 45.5381 45.6806 45.7997 45.2796C46.7241 44.4692 47.0195 46.5289 46.6734 47.0819C46.4118 47.601 46.5806 48.0357 46.6861 48.5718C47.1546 48.3143 47.8595 48.3987 47.9228 47.7825C48.4124 46.3179 48.2773 40.2146 45.7829 41.1221C43.4277 42.515 44.7699 39.151 44.829 38.0156C45.1118 36.9689 45.9812 35.9643 46.9309 35.462C47.3783 35.3354 47.4796 35.2172 47.3867 34.7614C46.3738 31.4945 48.2478 33.1702 47.9988 32.0981C47.8004 31.8448 47.7793 31.5578 47.7919 31.2413C50.2062 31.6507 47.7455 36.665 52.0803 37.5133C51.5822 32.5581 48.003 33.4952 49.8939 30.3465C50.1893 29.4263 49.4423 28.5315 49.9066 27.5903C49.9361 27.5059 48.8809 27.3961 48.3153 27.5101C48.4631 26.9065 48.4377 26.3578 47.9312 25.9822C48.4884 25.6107 48.9949 25.2689 49.6364 24.8383C49.2101 24.5809 48.7036 23.5257 48.3786 24.2094C47.6906 25.328 46.0361 25.1169 45.3988 26.4127C45.0147 26.915 45.0611 27.1387 45.3397 27.6578C44.0945 28.0208 44.2001 29.5403 43.2377 29.2364C42.6299 29.0211 42.3303 29.6711 41.8829 29.9286C41.3131 30.2114 40.6166 30.1481 40.0257 30.3549C38.8017 30.5955 39.8316 31.3468 39.2027 31.8448C38.8903 32.0263 38.5991 32.2585 38.3458 32.5159C37.8182 33.2461 37.2273 32.4822 36.7968 32.0643C36.4676 31.6929 36.2355 31.6844 36.0118 32.1234C35.8556 32.4231 34.0913 32.6046 33.7747 32.5497M49.4592 44.2033C49.3452 42.7935 47.5345 40.6958 48.501 39.6786C49.016 41.2698 51.101 42.8611 49.4592 44.2033ZM49.6997 44.6929C49.9488 44.9841 50.1936 45.2754 50.5861 45.7312C49.4803 45.8283 49.5309 45.5244 49.4634 44.7182C49.5436 44.7098 49.6238 44.6971 49.6997 44.6887V44.6929Z" stroke="black" stroke-width="0.844156" stroke-miterlimit="10"/>
<path d="M8.48385 32.9211C7.54262 32.6384 6.70268 31.4903 7.56372 31.2666C8.32346 31.4861 8.70333 32.1023 8.48385 32.9211Z" stroke="black" stroke-width="0.844156" stroke-miterlimit="10"/>
<path d="M6.86734 44.3933C6.8378 44.7056 5.10305 44.6634 4.97221 44.5368C4.68942 44.2709 5.1115 42.7894 5.45338 42.6965C5.90078 42.8274 7.34851 42.553 6.86734 44.3933Z" stroke="black" stroke-width="0.844156" stroke-miterlimit="10"/>
<path d="M39.9371 18.7604C39.9371 25.5516 27.6377 40.8942 27.6377 40.8942C27.6377 40.8942 15.3384 25.5516 15.3384 18.7604C15.3384 11.9692 20.8423 6.46106 27.6377 6.46106C34.4332 6.46106 39.9371 11.965 39.9371 18.7604Z" stroke="black" stroke-width="0.844156" stroke-miterlimit="10"/>
<path d="M21.2221 22.6013C20.9267 22.6477 20.6017 22.6983 20.2809 22.7574C19.7575 22.8503 19.4958 22.6646 19.4114 22.1285C19.3523 21.7444 19.2806 21.3646 19.2257 20.9805C19.1624 20.512 19.3312 20.2925 19.7913 20.2039C20.0952 20.149 20.3991 20.0983 20.703 20.0435C21.0744 19.9759 21.3065 19.7522 21.3952 19.3892C21.4923 18.9925 21.5893 18.5957 21.6695 18.199C21.7413 17.836 21.6315 17.5279 21.3276 17.3042C21.0786 17.1227 20.8254 16.9454 20.5763 16.7639C20.1965 16.4853 20.1458 16.1815 20.4202 15.7931C20.6565 15.4597 20.8929 15.1263 21.1335 14.797C21.3952 14.4383 21.6991 14.3876 22.0578 14.6324C22.3026 14.8013 22.5432 14.9785 22.788 15.1516C23.1341 15.4006 23.4887 15.4048 23.8474 15.1811C24.1598 14.987 24.4721 14.7886 24.7845 14.5944C25.1432 14.3707 25.2994 14.0584 25.2234 13.6363C25.1686 13.3409 25.1221 13.0496 25.0841 12.75C25.0335 12.3194 25.2023 12.0957 25.6286 12.0155C26.0507 11.9353 26.4686 11.8636 26.8949 11.8003C27.3127 11.737 27.5828 11.9438 27.6546 12.3659C27.701 12.6318 27.739 12.8977 27.7812 13.1594C27.853 13.6194 28.0809 13.8727 28.5283 13.9782C28.8871 14.0626 29.2458 14.1513 29.6046 14.2272C30.014 14.3159 30.3517 14.2061 30.5923 13.8474C30.7569 13.611 30.9257 13.3746 31.0945 13.1425C31.3436 12.8048 31.6601 12.75 32.002 12.9821C32.3608 13.2311 32.7195 13.4844 33.0699 13.7461C33.3949 13.9866 33.4455 14.299 33.2176 14.6324C33.0445 14.8899 32.863 15.1389 32.6815 15.3879C32.441 15.7256 32.4325 16.0675 32.652 16.4178C32.8462 16.7302 33.0361 17.0467 33.2302 17.359C33.4666 17.7389 33.7747 17.8782 34.2179 17.8022C34.5007 17.7516 34.7877 17.7009 35.0705 17.6545C35.4884 17.587 35.7669 17.7896 35.8387 18.2074C35.9104 18.6295 35.978 19.0516 36.0455 19.4737C36.1088 19.862 35.9189 20.1405 35.5348 20.2123C35.2013 20.2756 34.8679 20.322 34.5345 20.3853C34.1799 20.4529 33.9478 20.6681 33.8549 21.0185C33.7536 21.4152 33.6565 21.8078 33.5721 22.2087C33.4961 22.5844 33.6101 22.8967 33.9309 23.1246C34.1841 23.3019 34.4332 23.4792 34.6822 23.6649C35.0241 23.9181 35.0789 24.222 34.8384 24.5724C34.5893 24.9311 34.3361 25.2899 34.0744 25.6402C33.8338 25.961 33.5173 26.0116 33.188 25.7879C32.9263 25.6107 32.6689 25.4207 32.4072 25.235C32.078 25.0029 31.7445 24.9902 31.4026 25.2013C31.0819 25.3996 30.7569 25.598 30.4403 25.8006C30.1026 26.0116 29.9591 26.3155 30.0267 26.7123C30.0815 27.0373 30.1153 27.3623 30.1828 27.6831C30.2504 27.9996 30.0309 28.3542 29.6806 28.4048C29.2374 28.4724 28.7984 28.561 28.3552 28.6285C27.9669 28.6876 27.6968 28.5019 27.6166 28.1094C27.5533 27.8055 27.5111 27.5016 27.4647 27.1977C27.3929 26.7503 27.1734 26.5055 26.7345 26.4C26.3673 26.3113 26 26.2185 25.6286 26.1425C25.2656 26.0665 24.9575 26.1763 24.7338 26.4802C24.5397 26.7461 24.3539 27.0162 24.1598 27.2821C23.9108 27.6198 23.5942 27.6746 23.2523 27.4383C22.902 27.1935 22.5517 26.9444 22.2056 26.6912C21.851 26.4295 21.8004 26.1214 22.0452 25.7626C22.2224 25.5094 22.4039 25.2603 22.5854 25.0113C22.826 24.6737 22.826 24.3276 22.6108 23.9815C22.4124 23.6607 22.2098 23.3399 22.0114 23.0191C21.8341 22.7363 21.5724 22.597 21.2052 22.597L21.2221 22.6013Z" stroke="black" stroke-width="0.844156" stroke-miterlimit="10"/>
<path d="M27.6376 23.2344C29.3043 23.2344 30.6555 21.8833 30.6555 20.2166C30.6555 18.5499 29.3043 17.1987 27.6376 17.1987C25.9709 17.1987 24.6198 18.5499 24.6198 20.2166C24.6198 21.8833 25.9709 23.2344 27.6376 23.2344Z" stroke="black" stroke-width="0.844156" stroke-miterlimit="10"/>
</svg>
