<svg width="42" height="41" viewBox="0 0 42 41" fill="none" xmlns="http://www.w3.org/2000/svg">
<path d="M29.6758 0L41.2598 11.584V40.4297H12.4141L0.830078 28.8457V0H29.6758ZM13.4688 37.8984H38.7285V12.6387H28.6211V16.418H23.5762V12.6387H13.4688V37.8984ZM12.2031 36.6328V12.2695L3.36133 3.42773V27.791L12.2031 36.6328ZM18.5137 2.53125L27.3555 11.373H37.4629L28.6211 2.53125H18.5137ZM13.4688 2.53125H4.25781L13.0996 11.373H22.3105L13.4688 2.53125ZM10.9375 26.5254V31.5879L7.14062 27.791V22.7461L10.9375 26.5254ZM29.8867 35.3848V34.1191H36.1973V35.3848H29.8867ZM32.418 31.5879V30.3223H36.1973V31.5879H32.418Z" fill="#2563EB"/>
</svg>
