<svg width="19" height="18" viewBox="0 0 19 18" fill="none" xmlns="http://www.w3.org/2000/svg">
<path d="M10.4531 8.42188H12.2891C12.4453 8.42188 12.5781 8.47656 12.6875 8.58594C12.7969 8.69531 12.8516 8.82812 12.8516 8.98438C12.8516 9.14062 12.7969 9.27344 12.6875 9.38281C12.5781 9.49219 12.4453 9.54688 12.2891 9.54688H10.4531C10.3542 9.71875 10.2161 9.85677 10.0391 9.96094C9.86719 10.0599 9.68229 10.1094 9.48438 10.1094C9.32812 10.1094 9.18229 10.0807 9.04688 10.0234C8.91146 9.96094 8.79167 9.88021 8.6875 9.78125C8.58854 9.67708 8.50781 9.55729 8.44531 9.42188C8.38802 9.28646 8.35938 9.14062 8.35938 8.98438C8.35938 8.78646 8.40885 8.60156 8.50781 8.42969C8.61198 8.2526 8.75 8.11458 8.92188 8.01562V5.05469C8.92188 4.89844 8.97656 4.76562 9.08594 4.65625C9.19531 4.54688 9.32812 4.49219 9.48438 4.49219C9.64062 4.49219 9.77344 4.54688 9.88281 4.65625C9.99219 4.76562 10.0469 4.89844 10.0469 5.05469V8.01562C10.224 8.10938 10.3594 8.24479 10.4531 8.42188ZM9.48438 0C10.3073 0 11.1016 0.106771 11.8672 0.320312C12.6328 0.533854 13.349 0.835938 14.0156 1.22656C14.6823 1.61719 15.2891 2.08594 15.8359 2.63281C16.3828 3.17969 16.8516 3.78646 17.2422 4.45312C17.6328 5.11979 17.9349 5.83594 18.1484 6.60156C18.362 7.36719 18.4688 8.16146 18.4688 8.98438C18.4688 9.8125 18.362 10.6094 18.1484 11.375C17.9349 12.1354 17.6328 12.849 17.2422 13.5156C16.8516 14.1823 16.3828 14.7891 15.8359 15.3359C15.2891 15.8828 14.6823 16.3516 14.0156 16.7422C13.349 17.1328 12.6328 17.4349 11.8672 17.6484C11.1016 17.862 10.3073 17.9688 9.48438 17.9688C8.65625 17.9688 7.85938 17.862 7.09375 17.6484C6.33333 17.4349 5.61979 17.1328 4.95312 16.7422C4.28646 16.3516 3.67969 15.8828 3.13281 15.3359C2.58594 14.7891 2.11719 14.1823 1.72656 13.5156C1.33594 12.849 1.03385 12.1328 0.820312 11.3672C0.606771 10.6016 0.5 9.80729 0.5 8.98438C0.5 8.16146 0.606771 7.36719 0.820312 6.60156C1.03385 5.83594 1.33594 5.11979 1.72656 4.45312C2.11719 3.78646 2.58594 3.17969 3.13281 2.63281C3.67969 2.08594 4.28646 1.61719 4.95312 1.22656C5.61979 0.835938 6.33333 0.533854 7.09375 0.320312C7.85938 0.106771 8.65625 0 9.48438 0ZM9.48438 16.8438C10.2083 16.8438 10.9036 16.75 11.5703 16.5625C12.2422 16.375 12.8698 16.1094 13.4531 15.7656C14.0365 15.4271 14.5651 15.0208 15.0391 14.5469C15.5182 14.0677 15.9271 13.5365 16.2656 12.9531C16.6094 12.3698 16.875 11.7448 17.0625 11.0781C17.25 10.4062 17.3438 9.70833 17.3438 8.98438C17.3438 8.26042 17.25 7.5651 17.0625 6.89844C16.875 6.22656 16.6094 5.59896 16.2656 5.01562C15.9271 4.43229 15.5182 3.90365 15.0391 3.42969C14.5651 2.95052 14.0365 2.54167 13.4531 2.20312C12.8698 1.85938 12.2422 1.59375 11.5703 1.40625C10.9036 1.21875 10.2083 1.125 9.48438 1.125C8.76042 1.125 8.0625 1.21875 7.39062 1.40625C6.72396 1.59375 6.09896 1.85938 5.51562 2.20312C4.93229 2.54167 4.40104 2.95052 3.92188 3.42969C3.44792 3.90365 3.03906 4.43229 2.69531 5.01562C2.35677 5.59896 2.09375 6.22656 1.90625 6.89844C1.71875 7.5651 1.625 8.26042 1.625 8.98438C1.625 9.70833 1.71875 10.4062 1.90625 11.0781C2.09375 11.7448 2.35677 12.3698 2.69531 12.9531C3.03906 13.5365 3.44792 14.0677 3.92188 14.5469C4.40104 15.0208 4.93229 15.4271 5.51562 15.7656C6.09896 16.1094 6.72396 16.375 7.39062 16.5625C8.0625 16.75 8.76042 16.8438 9.48438 16.8438ZM9.48438 1.6875C10.1562 1.6875 10.8021 1.77604 11.4219 1.95312C12.0469 2.125 12.6276 2.36979 13.1641 2.6875C13.7057 3 14.1979 3.38021 14.6406 3.82812C15.0885 4.27083 15.4688 4.76302 15.7812 5.30469C16.099 5.84115 16.3438 6.42188 16.5156 7.04688C16.6927 7.66667 16.7812 8.3125 16.7812 8.98438C16.7812 9.65625 16.6927 10.3047 16.5156 10.9297C16.3438 11.5495 16.099 12.1302 15.7812 12.6719C15.4688 13.2135 15.0911 13.7057 14.6484 14.1484C14.2057 14.5911 13.7135 14.9688 13.1719 15.2812C12.6302 15.599 12.0469 15.8438 11.4219 16.0156C10.8021 16.1927 10.1562 16.2812 9.48438 16.2812C8.8125 16.2812 8.16406 16.1927 7.53906 16.0156C6.91927 15.8438 6.33854 15.599 5.79688 15.2812C5.25521 14.9688 4.76302 14.5911 4.32031 14.1484C3.8776 13.7057 3.4974 13.2135 3.17969 12.6719C2.86719 12.1302 2.6224 11.5495 2.44531 10.9297C2.27344 10.3047 2.1875 9.65625 2.1875 8.98438C2.1875 8.3125 2.27344 7.66667 2.44531 7.04688C2.6224 6.42188 2.86719 5.83854 3.17969 5.29688C3.4974 4.75521 3.8776 4.26302 4.32031 3.82031C4.76302 3.3776 5.25521 3 5.79688 2.6875C6.33854 2.36979 6.91927 2.125 7.53906 1.95312C8.16406 1.77604 8.8125 1.6875 9.48438 1.6875ZM9.48438 15.7266C10.1042 15.7266 10.7005 15.6458 11.2734 15.4844C11.8464 15.3229 12.3828 15.0964 12.8828 14.8047C13.3828 14.513 13.8359 14.1615 14.2422 13.75C14.6536 13.3385 15.0052 12.8828 15.2969 12.3828C15.5885 11.8828 15.8151 11.3464 15.9766 10.7734C16.138 10.2005 16.2188 9.60417 16.2188 8.98438C16.2188 8.36458 16.138 7.76823 15.9766 7.19531C15.8203 6.61719 15.5938 6.08073 15.2969 5.58594C15.0052 5.08594 14.6536 4.63281 14.2422 4.22656C13.8359 3.8151 13.3828 3.46354 12.8828 3.17188C12.388 2.875 11.8516 2.64844 11.2734 2.49219C10.7005 2.33073 10.1042 2.25 9.48438 2.25C8.86458 2.25 8.26823 2.33073 7.69531 2.49219C7.1224 2.65365 6.58594 2.88021 6.08594 3.17188C5.58594 3.46354 5.13021 3.8151 4.71875 4.22656C4.30729 4.63281 3.95573 5.08594 3.66406 5.58594C3.3724 6.08594 3.14583 6.6224 2.98438 7.19531C2.82292 7.76823 2.74219 8.36458 2.74219 8.98438C2.74219 9.60417 2.82292 10.2005 2.98438 10.7734C3.14583 11.3464 3.3724 11.8828 3.66406 12.3828C3.95573 12.8828 4.30729 13.3385 4.71875 13.75C5.13021 14.1615 5.58594 14.513 6.08594 14.8047C6.58594 15.0964 7.1224 15.3229 7.69531 15.4844C8.26823 15.6458 8.86458 15.7266 9.48438 15.7266Z" fill="#9CA3AF"/>
</svg>
