<svg width="41" height="28" viewBox="0 0 41 28" fill="none" xmlns="http://www.w3.org/2000/svg">
<path d="M0.285156 0H40.7148V27.8086H0.285156V0ZM2.81641 25.2773H38.1836L24.8066 11.9004C24.0801 12.252 23.3535 12.6035 22.627 12.9551C21.9121 13.2949 21.2031 13.6641 20.5 14.0625C19.7969 13.6641 19.082 13.2949 18.3555 12.9551C17.6406 12.6035 16.9199 12.252 16.1934 11.9004L2.81641 25.2773ZM38.1836 3.79688V2.53125H2.81641V3.79688L20.5 12.6387L38.1836 3.79688ZM2.81641 5.20312V23.4844L14.998 11.3027L2.81641 5.20312ZM26.002 11.3027L38.1836 23.4844V5.20312L26.002 11.3027Z" fill="white"/>
</svg>
