<svg width="41" height="28" viewBox="0 0 41 28" fill="none" xmlns="http://www.w3.org/2000/svg">
<path d="M0.160156 0H40.5898V27.8086H0.160156V0ZM2.69141 25.2773H38.0586L24.6816 11.9004C23.9551 12.252 23.2285 12.6035 22.502 12.9551C21.7871 13.2949 21.0781 13.6641 20.375 14.0625C19.6719 13.6641 18.957 13.2949 18.2305 12.9551C17.5156 12.6035 16.7949 12.252 16.0684 11.9004L2.69141 25.2773ZM38.0586 3.79688V2.53125H2.69141V3.79688L20.375 12.6387L38.0586 3.79688ZM2.69141 5.20312V23.4844L14.873 11.3027L2.69141 5.20312ZM25.877 11.3027L38.0586 23.4844V5.20312L25.877 11.3027Z" fill="#2563EB"/>
</svg>
