<svg width="18" height="12" viewBox="0 0 18 12" fill="none" xmlns="http://www.w3.org/2000/svg">
<path d="M0 0H18V12H0V0ZM1.12696 10.9077H16.873L10.9174 5.13527C10.5939 5.28698 10.2704 5.43868 9.94696 5.59039C9.6287 5.73704 9.31304 5.89633 9 6.06827C8.68696 5.89633 8.3687 5.73704 8.04522 5.59039C7.72696 5.43868 7.40609 5.28698 7.08261 5.13527L1.12696 10.9077ZM16.873 1.63843V1.09229H1.12696V1.63843L9 5.45386L16.873 1.63843ZM1.12696 2.24526V10.134L6.55044 4.87737L1.12696 2.24526ZM11.4496 4.87737L16.873 10.134V2.24526L11.4496 4.87737Z" fill="#9CA3AF"/>
</svg>
