<svg width="211" height="105" viewBox="0 0 211 105" fill="none" xmlns="http://www.w3.org/2000/svg">
<mask id="mask0_8_249" style="mask-type:alpha" maskUnits="userSpaceOnUse" x="76" y="24" width="29" height="56">
<rect x="76.4704" y="24.7749" width="28.0912" height="55.0119" fill="url(#paint0_linear_8_249)"/>
</mask>
<g mask="url(#mask0_8_249)">
<path d="M96.833 24.9124C98.3606 27.3942 99.6871 30.0132 100.789 32.7468L93.1251 39.0814C93.4577 40.1538 93.7492 41.244 93.9986 42.3504L103.912 44.0229C104.339 46.7127 104.562 49.4709 104.562 52.2808C104.562 54.8081 104.38 57.2935 104.034 59.725L93.9986 61.418C93.7492 62.5244 93.4577 63.6149 93.1251 64.6873L101.025 71.2169C99.8778 74.167 98.4708 76.9871 96.832 79.6493H76.4177C83.9936 72.9628 88.7721 63.1799 88.7721 52.2808C88.7721 41.3817 83.9936 31.5989 76.4177 24.9124H96.833Z" fill="url(#paint1_linear_8_249)"/>
</g>
<path d="M52.2808 0C54.8555 8.11743e-09 57.3866 0.187353 59.8617 0.546876L61.418 9.77009C62.5244 10.0195 63.6149 10.311 64.6873 10.6435L70.7197 3.34499C75.7475 5.24042 80.4064 7.88833 84.5588 11.1517L81.1943 20.1878C82.0204 20.952 82.8166 21.7483 83.5809 22.5744L92.7369 19.1643C94.2266 20.982 95.5957 22.9022 96.833 24.9123H76.4177C69.9849 19.2348 61.5353 15.7895 52.2808 15.7895C32.1272 15.7895 15.7895 32.1272 15.7895 52.2808C15.7895 72.4344 32.1272 88.7721 52.2808 88.7721C61.5353 88.7721 69.9849 85.3268 76.4177 79.6492H96.832C95.7322 81.4358 94.5282 83.1513 93.2279 84.787L83.5809 81.1943C82.8166 82.0204 82.0204 82.8166 81.1943 83.5809L84.787 93.2279C80.7139 96.4657 76.1468 99.1081 71.2169 101.025L64.6873 93.1251C63.6149 93.4577 62.5244 93.7492 61.418 93.9986L59.7249 104.034C57.2934 104.381 54.8081 104.562 52.2808 104.562C49.4708 104.562 46.7127 104.339 44.0228 103.912L42.3503 93.9986C41.244 93.7492 40.1537 93.4577 39.0814 93.1251L32.7468 100.789C27.7991 98.7946 23.2264 96.0659 19.1643 92.7369L22.5744 83.5809C21.7483 82.8166 20.952 82.0204 20.1878 81.1943L11.1517 84.5588C7.88833 80.4064 5.24042 75.7475 3.34499 70.7197L10.6435 64.6873C10.311 63.6149 10.0195 62.5244 9.77009 61.418L0.546876 59.8617C0.187353 57.3866 8.11762e-09 54.8555 0 52.2808C0 49.423 0.229371 46.6187 0.670574 43.8854L9.77009 42.3503C10.0195 41.244 10.311 40.1537 10.6435 39.0814L3.57628 33.2395C5.55 28.1949 8.28422 23.5314 11.6389 19.3911L20.1878 22.5744C20.952 21.7483 21.7483 20.952 22.5744 20.1878L19.3911 11.6389C23.5314 8.28422 28.1949 5.55 33.2395 3.57628L39.0814 10.6435C40.1537 10.311 41.244 10.0195 42.3503 9.77009L43.8854 0.670574C46.6187 0.229371 49.423 0 52.2808 0Z" fill="url(#paint2_linear_8_249)"/>
<path d="M187.682 64.1805C187.142 64.1805 186.84 63.9377 186.775 63.4519C186.775 63.2144 186.889 62.9499 187.115 62.6584L195.277 52.2463L187.585 42.4982C187.358 42.2175 187.245 41.953 187.245 41.7047C187.245 41.2081 187.542 40.9598 188.136 40.9598H191.617C192.697 40.9598 193.641 41.4726 194.451 42.4982L198.888 48.1333L203.325 42.4982C204.123 41.4834 205.068 40.9706 206.158 40.9598H209.64C210.234 40.9598 210.53 41.2081 210.53 41.7047C210.53 41.9422 210.417 42.2067 210.19 42.4982L202.499 52.2463L210.66 62.6584C210.887 62.9391 211 63.1658 211 63.3385C211 63.5112 210.978 63.6354 210.935 63.711C210.816 64.024 210.536 64.1805 210.093 64.1805H206.644C205.565 64.1805 204.625 63.6732 203.827 62.6584L198.888 56.3593L193.949 62.6584C193.15 63.6732 192.211 64.1805 191.131 64.1805H187.682Z" fill="#C7C7C7"/>
<path d="M164.057 62.626V42.4658C164.057 42.0448 164.208 41.6885 164.51 41.397C164.812 41.1056 165.174 40.9598 165.595 40.9598H184.265C184.686 40.9598 185.043 41.111 185.334 41.4132C185.636 41.7155 185.788 42.0772 185.788 42.4982V44.0203C185.788 44.4413 185.636 44.803 185.334 45.1052C185.043 45.3967 184.686 45.5424 184.265 45.5424H170.161V50.2546H182.306C182.727 50.2546 183.083 50.4057 183.375 50.708C183.677 50.9995 183.828 51.3557 183.828 51.7767V53.2989C183.828 53.7199 183.677 54.0815 183.375 54.3838C183.083 54.6753 182.727 54.821 182.306 54.821H170.161V59.5979H184.233C184.643 59.5979 184.994 59.7437 185.286 60.0351C185.577 60.3266 185.723 60.6829 185.723 61.1039V62.6584C185.723 63.0794 185.572 63.4411 185.269 63.7433C184.967 64.0348 184.605 64.1805 184.184 64.1805H165.595C165.174 64.1805 164.812 64.0348 164.51 63.7433C164.208 63.4411 164.057 63.0686 164.057 62.626Z" fill="#C7C7C7"/>
<path d="M137.775 44.0203V42.4982C137.775 42.0556 137.921 41.6885 138.213 41.397C138.504 41.1056 138.871 40.9598 139.314 40.9598H159.863C160.305 40.9598 160.672 41.1056 160.964 41.397C161.255 41.6885 161.401 42.0556 161.401 42.4982V44.0203C161.401 44.4629 161.255 44.83 160.964 45.1214C160.672 45.4021 160.305 45.5424 159.863 45.5424H152.641V62.6908C152.641 63.1118 152.489 63.4681 152.187 63.7595C151.896 64.0402 151.539 64.1805 151.118 64.1805H148.058C147.637 64.1805 147.275 64.0402 146.973 63.7595C146.682 63.4681 146.536 63.1118 146.536 62.6908V45.5424H139.314C138.871 45.5424 138.504 45.4021 138.213 45.1214C137.921 44.83 137.775 44.4629 137.775 44.0203Z" fill="#C7C7C7"/>
<path d="M110.199 62.6908L114.263 47.2751C115.364 43.0757 118.948 40.9706 125.015 40.9598H133.743C134.143 40.9598 134.472 41.111 134.731 41.4132C135.001 41.7155 135.136 42.0664 135.136 42.4658V62.6908C135.136 63.1118 134.985 63.4681 134.683 63.7595C134.38 64.0402 134.019 64.1805 133.598 64.1805H130.553C130.111 64.1805 129.744 64.0402 129.452 63.7595C129.172 63.4681 129.031 63.101 129.031 62.6584V58.5778H117.518L116.433 62.6584C116.325 63.101 116.082 63.4681 115.704 63.7595C115.327 64.0402 114.927 64.1805 114.506 64.1805H111.316C110.895 64.1805 110.593 64.0618 110.409 63.8243C110.226 63.576 110.134 63.3601 110.134 63.1766C110.145 62.9931 110.166 62.8311 110.199 62.6908ZM118.716 53.9952H129.031V45.5424H124.416C123.38 45.5424 122.473 45.8393 121.696 46.4331C120.929 47.016 120.411 47.8041 120.141 48.7972L118.716 53.9952Z" fill="#002649"/>
<path d="M84.7435 42.4982C84.7435 42.0772 84.8946 41.7155 85.1969 41.4132C85.4991 41.111 85.8608 40.9598 86.2818 40.9598H99.4467C102.674 40.9598 105.055 41.8882 106.588 43.745C107.441 44.7706 107.867 46.0822 107.867 47.6799C107.867 49.2668 107.138 50.654 105.681 51.8415C107.754 52.9534 108.79 54.6807 108.79 57.0233C108.79 59.3658 107.959 61.1471 106.296 62.3669C104.645 63.576 102.615 64.1805 100.208 64.1805H86.2818C85.8608 64.1805 85.4991 64.0348 85.1969 63.7433C84.8946 63.4411 84.7435 63.0794 84.7435 62.6584V42.4982ZM90.8482 59.8084H100.111C100.942 59.8084 101.579 59.5602 102.021 59.0636C102.464 58.567 102.685 57.8869 102.685 57.0233C102.685 56.1596 102.464 55.4795 102.021 54.9829C101.579 54.4864 100.942 54.2381 100.111 54.2381H90.8482V59.8084ZM90.8482 49.9793H99.5114C100.192 49.9793 100.737 49.7796 101.147 49.3802C101.557 48.97 101.762 48.4032 101.762 47.6799C101.762 46.9458 101.557 46.3737 101.147 45.9635C100.737 45.5532 100.192 45.3481 99.5114 45.3481H90.8482V49.9793Z" fill="#002649"/>
<path d="M78.0881 61.7839C75.8859 63.7163 72.6473 64.6825 68.3724 64.6825C64.1082 64.6825 60.8696 63.7163 58.6566 61.7839C56.4436 59.8408 55.337 56.7695 55.337 52.5701C55.337 48.3708 56.4436 45.3049 58.6566 43.3725C60.8696 41.4402 64.1082 40.474 68.3724 40.474C72.6473 40.474 75.8859 41.4402 78.0881 43.3725C80.3012 45.3049 81.4077 48.3708 81.4077 52.5701C81.4077 56.7695 80.3012 59.8408 78.0881 61.7839ZM73.6675 46.7893C72.5771 45.4938 70.8121 44.8461 68.3724 44.8461C65.9434 44.8461 64.1784 45.4938 63.0773 46.7893C61.9869 48.0847 61.4418 50.0171 61.4418 52.5863C61.4418 55.1448 61.9869 57.0718 63.0773 58.3672C64.1784 59.6519 65.9434 60.2942 68.3724 60.2942C70.8121 60.2942 72.5771 59.6519 73.6675 58.3672C74.7578 57.0718 75.303 55.1448 75.303 52.5863C75.303 50.0171 74.7578 48.0847 73.6675 46.7893Z" fill="#002649"/>
<path d="M28.6511 62.6584V42.4982C28.6511 42.0772 28.8022 41.7155 29.1045 41.4132C29.4067 41.111 29.7792 40.9598 30.2218 40.9598H33.2337C33.6547 40.9598 34.0109 41.111 34.3024 41.4132C34.6047 41.7155 34.7558 42.0772 34.7558 42.4982V49.785H45.8966V42.4982C45.8966 42.0772 46.0477 41.7155 46.35 41.4132C46.6522 41.111 47.0139 40.9598 47.4349 40.9598H50.4468C50.8894 40.9598 51.2564 41.111 51.5479 41.4132C51.8502 41.7155 52.0013 42.0772 52.0013 42.4982V62.6584C52.0013 63.0794 51.8448 63.4411 51.5317 63.7433C51.2294 64.0348 50.8678 64.1805 50.4468 64.1805H47.4349C47.0139 64.1805 46.6522 64.0402 46.35 63.7595C46.0477 63.4681 45.8966 63.1118 45.8966 62.6908V54.3676H34.7558V62.6908C34.7558 63.1118 34.6047 63.4681 34.3024 63.7595C34.0109 64.0402 33.6547 64.1805 33.2337 64.1805H30.2218C29.8008 64.1805 29.4337 64.0348 29.1207 63.7433C28.8076 63.4411 28.6511 63.0794 28.6511 62.6584Z" fill="#002649"/>
<defs>
<linearGradient id="paint0_linear_8_249" x1="90.516" y1="24.7749" x2="90.516" y2="79.7868" gradientUnits="userSpaceOnUse">
<stop stop-color="white"/>
<stop offset="0.264423" stop-color="white" stop-opacity="0"/>
<stop offset="0.759615" stop-color="white" stop-opacity="0"/>
<stop offset="1" stop-color="white"/>
</linearGradient>
<linearGradient id="paint1_linear_8_249" x1="95.9781" y1="52.2808" x2="-0.0975572" y2="52.2808" gradientUnits="userSpaceOnUse">
<stop stop-color="#00B5F5"/>
<stop offset="1" stop-color="#002446"/>
</linearGradient>
<linearGradient id="paint2_linear_8_249" x1="96.833" y1="52.2808" x2="0" y2="52.2808" gradientUnits="userSpaceOnUse">
<stop stop-color="#00B5F5"/>
<stop offset="1" stop-color="#002446"/>
</linearGradient>
</defs>
</svg>
