<svg width="41" height="41" viewBox="0 0 41 41" fill="none" xmlns="http://www.w3.org/2000/svg">
<path d="M40.7148 0V40.4297H0.285156V0H40.7148ZM23.0312 25.2773C23.3828 25.2773 23.7109 25.3418 24.0156 25.4707C24.3203 25.5996 24.584 25.7812 24.8066 26.0156C25.041 26.2383 25.2227 26.502 25.3516 26.8066C25.4805 27.1113 25.5449 27.4395 25.5449 27.791V37.8984H38.1836V16.418H2.81641V37.8984H15.4375V27.791C15.4375 27.4395 15.502 27.1113 15.6309 26.8066C15.7715 26.502 15.9531 26.2383 16.1758 26.0156C16.4102 25.7812 16.6797 25.5996 16.9844 25.4707C17.2891 25.3418 17.6172 25.2773 17.9688 25.2773H23.0312ZM2.81641 13.9043H38.1836V5.0625H2.81641V13.9043ZM2.81641 3.79688H38.1836V2.53125H2.81641V3.79688ZM28.0762 32.8535V27.791H33.1387V32.8535H28.0762ZM7.86133 32.8535V27.791H12.9238V32.8535H7.86133ZM28.0762 22.7461V17.6836H33.1387V22.7461H28.0762ZM7.86133 22.7461V17.6836H12.9238V22.7461H7.86133ZM17.9688 22.7461V17.6836H23.0312V22.7461H17.9688ZM28.0762 12.6387V7.57617H33.1387V12.6387H28.0762ZM7.86133 12.6387V7.57617H12.9238V12.6387H7.86133ZM17.9688 12.6387V7.57617H23.0312V12.6387H17.9688Z" fill="white"/>
</svg>
