<svg width="31" height="40" viewBox="0 0 31 40" fill="none" xmlns="http://www.w3.org/2000/svg">
<path d="M15.6523 0C18.6289 0 21.377 0.5625 23.8965 1.6875C26.416 2.8125 28.7246 4.41797 30.8223 6.50391V11.373C30.8223 14.3613 30.459 17.1914 29.7324 19.8633C29.0059 22.5234 27.9746 25.0371 26.6387 27.4043C25.3145 29.7715 23.7207 31.9922 21.8574 34.0664C19.9941 36.1523 17.9258 38.1035 15.6523 39.9199C13.3789 38.0918 11.3105 36.1348 9.44727 34.0488C7.5957 31.9746 6.00195 29.7598 4.66602 27.4043C3.3418 25.0371 2.31641 22.5234 1.58984 19.8633C0.863281 17.1914 0.5 14.3613 0.5 11.373V6.50391C2.59766 4.41797 4.90039 2.8125 7.4082 1.6875C9.91602 0.5625 12.6641 0 15.6523 0ZM28.291 11.373V7.57617C27.4473 6.75586 26.5332 6.03516 25.5488 5.41406C24.5645 4.78125 23.5332 4.25391 22.4551 3.83203C21.3887 3.39844 20.2812 3.07617 19.1328 2.86523C17.9844 2.64258 16.8242 2.53125 15.6523 2.53125C14.4805 2.53125 13.3203 2.64258 12.1719 2.86523C11.0352 3.08789 9.92773 3.41602 8.84961 3.84961C7.7832 4.27148 6.75781 4.79883 5.77344 5.43164C4.78906 6.05273 3.875 6.76758 3.03125 7.57617V11.373C3.03125 13.8926 3.33008 16.3301 3.92773 18.6855C4.52539 21.0293 5.375 23.2676 6.47656 25.4004C7.57812 27.5332 8.90234 29.543 10.4492 31.4297C12.0078 33.3164 13.7422 35.0508 15.6523 36.6328C17.5625 35.0508 19.2969 33.3164 20.8555 31.4297C22.4141 29.543 23.7441 27.5332 24.8457 25.4004C25.9473 23.2676 26.7969 21.0293 27.3945 18.6855C27.9922 16.3301 28.291 13.8926 28.291 11.373ZM15.1953 5.0625C17.2109 5.0625 19.0801 5.34961 20.8027 5.92383C22.5371 6.49805 24.1895 7.42383 25.7598 8.70117V12.1289C25.7598 12.5742 25.7363 13.0195 25.6895 13.4648C25.6543 13.8984 25.6074 14.3379 25.5488 14.7832C25.3145 16.5645 24.916 18.3047 24.3535 20.0039C23.791 21.7031 23.0879 23.3379 22.2441 24.9082C21.4004 26.4668 20.4219 27.9492 19.3086 29.3555C18.207 30.7617 16.9883 32.0684 15.6523 33.2754C14.0703 31.8809 12.6465 30.3281 11.3809 28.6172C10.127 26.8945 9.06055 25.0664 8.18164 23.1328C7.30273 21.1992 6.62891 19.1953 6.16016 17.1211C5.70312 15.0352 5.47461 12.9375 5.47461 10.8281C5.47461 10.4648 5.48047 10.1074 5.49219 9.75586C5.51562 9.4043 5.53906 9.05273 5.5625 8.70117C6.21875 8.15039 6.92773 7.65234 7.68945 7.20703C8.45117 6.75 9.24219 6.36328 10.0625 6.04688C10.8945 5.73047 11.7383 5.49023 12.5938 5.32617C13.4609 5.15039 14.3281 5.0625 15.1953 5.0625ZM24.5117 9.29883C23.3984 8.45508 22.1973 7.78711 20.9082 7.29492C19.6191 6.79102 18.2773 6.48047 16.8828 6.36328L14.4043 8.8418L16.918 11.373L14.4043 13.9043L16.918 16.418L14.4043 18.9492L16.918 21.4805L14.4043 24.0117L16.918 26.5254L14.4043 29.0566L16.25 30.9199C17.5156 29.6074 18.6582 28.1953 19.6777 26.6836C20.6973 25.1719 21.5645 23.5898 22.2793 21.9375C22.9941 20.2852 23.5449 18.5742 23.9316 16.8047C24.3184 15.0234 24.5117 13.2129 24.5117 11.373V9.29883Z" fill="#2563EB"/>
</svg>
