<svg width="40" height="38" viewBox="0 0 40 38" fill="none" xmlns="http://www.w3.org/2000/svg">
<path d="M39.6289 14.9941C39.6289 15.4512 39.5234 15.8848 39.3125 16.2949C39.1133 16.6934 38.8262 17.0273 38.4512 17.2969L29.7852 23.5898L33.0898 33.7676C33.1836 34.0723 33.2305 34.3711 33.2305 34.6641C33.2305 35.0508 33.1543 35.4141 33.002 35.7539C32.8613 36.1055 32.6621 36.4102 32.4043 36.668C32.1465 36.9258 31.8418 37.125 31.4902 37.2656C31.1504 37.418 30.7871 37.4941 30.4004 37.4941C29.791 37.4941 29.2344 37.3125 28.7305 36.9492L20.0645 30.6562L11.3984 36.9492C10.9062 37.3125 10.3496 37.4941 9.72852 37.4941C9.3418 37.4941 8.97266 37.418 8.62109 37.2656C8.28125 37.1133 7.98242 36.9082 7.72461 36.6504C7.4668 36.3926 7.26172 36.0879 7.10938 35.7363C6.95703 35.3965 6.88086 35.0273 6.88086 34.6289C6.88086 34.3594 6.92773 34.0723 7.02148 33.7676L10.3438 23.5898L1.67773 17.2969C1.30273 17.0273 1.00977 16.6934 0.798828 16.2949C0.599609 15.8848 0.5 15.4512 0.5 14.9941C0.5 14.6074 0.576172 14.2441 0.728516 13.9043C0.880859 13.5527 1.08594 13.248 1.34375 12.9902C1.60156 12.7324 1.90039 12.5273 2.24023 12.375C2.5918 12.2227 2.96094 12.1465 3.34766 12.1465H14.0527L17.3574 1.96875C17.5566 1.38281 17.9023 0.908203 18.3945 0.544922C18.8867 0.181641 19.4434 0 20.0645 0C20.6855 0 21.2422 0.181641 21.7344 0.544922C22.2266 0.908203 22.5723 1.38281 22.7715 1.96875L26.0762 12.1465H36.7812C37.168 12.1465 37.5312 12.2227 37.8711 12.375C38.2227 12.5273 38.5273 12.7324 38.7852 12.9902C39.043 13.248 39.248 13.5527 39.4004 13.9043C39.5527 14.2441 39.6289 14.6074 39.6289 14.9941ZM37.0801 15.0117C37.0801 14.918 37.0508 14.8418 36.9922 14.7832C36.9453 14.7246 36.875 14.6953 36.7812 14.6953H24.459C24.3066 14.6953 24.207 14.6191 24.1602 14.4668L20.3633 2.75977C20.3281 2.61914 20.2285 2.54883 20.0645 2.54883C19.9004 2.54883 19.8008 2.61914 19.7656 2.75977L15.9512 14.4668C15.8926 14.6191 15.793 14.6953 15.6523 14.6953H3.34766C3.25391 14.6953 3.17773 14.7246 3.11914 14.7832C3.06055 14.8418 3.03125 14.918 3.03125 15.0117C3.03125 15.1172 3.07227 15.1992 3.1543 15.2578L13.1211 22.5C13.2031 22.5586 13.2441 22.6406 13.2441 22.7461C13.2441 22.793 13.2383 22.8281 13.2266 22.8516C13.1914 22.9688 13.1094 23.2266 12.9805 23.625C12.8516 24.0117 12.6934 24.4922 12.5059 25.0664C12.3301 25.6289 12.125 26.2559 11.8906 26.9473C11.668 27.6387 11.4395 28.3359 11.2051 29.0391C10.9824 29.7422 10.7598 30.4277 10.5371 31.0957C10.3262 31.7637 10.1328 32.3555 9.95703 32.8711C9.79297 33.3984 9.6582 33.8203 9.55273 34.1367C9.45898 34.4648 9.41211 34.6406 9.41211 34.6641C9.41211 34.7461 9.44141 34.8164 9.5 34.875C9.57031 34.9336 9.64648 34.9629 9.72852 34.9629C9.79883 34.9629 9.86328 34.9453 9.92188 34.9102L19.8711 27.6855C19.9414 27.6387 20.0059 27.6152 20.0645 27.6152C20.0996 27.6152 20.2344 27.6973 20.4688 27.8613C20.7148 28.0137 21.0312 28.2305 21.418 28.5117C21.8047 28.7812 22.2441 29.0977 22.7363 29.4609C23.2285 29.8125 23.7441 30.1875 24.2832 30.5859C24.8223 30.9727 25.3672 31.3652 25.918 31.7637C26.4688 32.1621 26.9902 32.543 27.4824 32.9062C27.9746 33.2695 28.4199 33.5977 28.8184 33.8906C29.2285 34.1953 29.5566 34.4355 29.8027 34.6113L30.207 34.9102C30.2539 34.9453 30.3184 34.9629 30.4004 34.9629C30.4824 34.9629 30.5527 34.9336 30.6113 34.875C30.6816 34.8164 30.7168 34.7461 30.7168 34.6641C30.7168 34.6523 30.6641 34.4824 30.5586 34.1543C30.4648 33.8262 30.3301 33.3984 30.1543 32.8711C29.9902 32.3555 29.7969 31.7637 29.5742 31.0957C29.3633 30.4277 29.1406 29.7422 28.9062 29.0391C28.6719 28.3242 28.4434 27.627 28.2207 26.9473C27.998 26.2559 27.793 25.623 27.6055 25.0488C27.418 24.4746 27.2598 23.9941 27.1309 23.6074C27.002 23.209 26.9199 22.957 26.8848 22.8516C26.873 22.8281 26.8672 22.7988 26.8672 22.7637C26.8672 22.6465 26.9141 22.5586 27.0078 22.5L36.957 15.2578C37.0391 15.2109 37.0801 15.1289 37.0801 15.0117Z" fill="#2563EB"/>
</svg>
