<svg width="19" height="20" viewBox="0 0 19 20" fill="none" xmlns="http://www.w3.org/2000/svg">
<path fill-rule="evenodd" clip-rule="evenodd" d="M19 10C19 15.5228 14.7467 20 9.5 20C4.2533 20 0 15.5228 0 10C0 4.47715 4.2533 0 9.5 0C14.7467 0 19 4.47715 19 10ZM9.84044 7.38244C8.91642 7.787 7.06969 8.62433 4.30025 9.89444C3.85053 10.0827 3.61495 10.2668 3.59351 10.4469C3.55726 10.7512 3.91931 10.8711 4.41233 11.0343C4.47939 11.0565 4.54888 11.0795 4.62012 11.1038C5.10517 11.2698 5.75765 11.464 6.09685 11.4717C6.40454 11.4787 6.74795 11.3452 7.12709 11.0711C9.71467 9.2325 11.0504 8.30317 11.1342 8.28314C11.1934 8.26901 11.2754 8.25123 11.3309 8.3032C11.3865 8.35518 11.381 8.4536 11.3751 8.48C11.3393 8.64095 9.9181 10.0317 9.18264 10.7515C8.95336 10.9759 8.79073 11.135 8.75748 11.1714C8.683 11.2528 8.6071 11.3298 8.53415 11.4038C8.08352 11.8611 7.7456 12.204 8.55286 12.764C8.9408 13.0331 9.25123 13.2556 9.56093 13.4776C9.89914 13.7201 10.2365 13.9619 10.6729 14.2631C10.7841 14.3398 10.8903 14.4195 10.9938 14.4971C11.3874 14.7925 11.741 15.0578 12.1779 15.0155C12.4317 14.9909 12.6939 14.7397 12.8271 13.9903C13.1418 12.2193 13.7605 8.38205 13.9034 6.80081C13.9159 6.66227 13.9002 6.48498 13.8875 6.40715C13.8749 6.32931 13.8484 6.21842 13.7523 6.13633C13.6385 6.03911 13.4628 6.01861 13.3842 6.02007C13.0269 6.0267 12.4787 6.22735 9.84044 7.38244Z" fill="#9CA3AF"/>
</svg>
